<?xml version="1.0" encoding="UTF-8" standalone="no"?>
<!DOCTYPE svg PUBLIC "-//W3C//DTD SVG 1.1//EN" "http://www.w3.org/Graphics/SVG/1.1/DTD/svg11.dtd">
<svg width="100%" height="100%" viewBox="0 0 156 40" version="1.1" xmlns="http://www.w3.org/2000/svg" xmlns:xlink="http://www.w3.org/1999/xlink" xml:space="preserve" xmlns:serif="http://www.serif.com/" style="fill-rule:evenodd;clip-rule:evenodd;stroke-linejoin:round;stroke-miterlimit:2;">
    <g transform="matrix(1,0,0,1,150.7,0)">
        <g id="Calque-3" serif:id="Calque 3">
            <path d="M0,40L-145.398,40C-148.323,40 -150.7,37.618 -150.7,34.692L-150.7,5.308C-150.7,2.381 -148.323,0 -145.398,0L0,0C2.923,0 5.3,2.381 5.3,5.308L5.3,34.692C5.3,37.618 2.923,40 0,40" style="fill:rgb(175,175,172);fill-rule:nonzero;"/>
        </g>
    </g>
    <g id="Calque-2" serif:id="Calque 2">
        <g transform="matrix(1,0,0,1,5.3047,39.0744)">
            <path d="M0,-38.176C-2.43,-38.176 -4.406,-36.2 -4.406,-33.77L-4.406,-4.405C-4.406,-1.976 -2.43,0 0,0L145.492,0C147.921,0 149.896,-1.976 149.896,-4.405L149.896,-33.77C149.896,-36.2 147.921,-38.176 145.492,-38.176L0,-38.176Z" style="fill:rgb(1,0,7);fill-rule:nonzero;"/>
        </g>
        <g transform="matrix(1,0,0,1,118.765,18.2616)">
            <path d="M0,5.004C1.012,4.617 1.519,2.953 0.908,2.022C0.66,1.642 0.291,1.331 0.092,1.331C-1.027,1.331 -2.213,3.986 -1.484,4.866C-1.092,5.337 -0.921,5.353 0,5.004M-0.708,10.321C-2.059,10.088 -4.019,8.57 -5.2,6.846C-6.044,5.615 -6.139,5.275 -6.119,3.611C-6.093,1.445 -5.418,-1.075 -4.576,-2.145C-3.908,-2.995 -1.875,-4.015 -0.849,-4.015C-0.226,-4.015 1.216,-3.484 3.421,-2.444C5.323,-1.548 5.654,-0.991 6.073,2.019L6.382,4.241L5.69,6.854C5.127,8.057 4.045,8.883 3.699,9.208C2.882,9.976 0.61,10.549 -0.708,10.321M10.747,10.557C10.138,10.204 8.949,8.879 8.424,7.967C8.235,7.644 8.077,6.766 8.071,6.022C8.056,4.029 8.893,2.776 9.326,4.14C9.737,5.435 11.261,6.016 11.979,5.15C12.557,4.453 11.588,2.822 9.188,0.455C7.031,-1.675 6.936,-1.82 6.936,-3.046C6.936,-4.947 7.481,-5.737 9.434,-6.669C11.055,-7.446 11.197,-7.466 12.341,-7.098C13.9,-6.598 15.73,-4.836 15.604,-3.954C15.527,-3.406 15.348,-3.31 14.39,-3.31C13.771,-3.31 13.106,-3.208 12.913,-3.083C12.337,-2.711 12.512,-1.861 13.266,-1.368C13.957,-0.914 13.967,-0.917 13.967,-1.705C13.967,-2.479 14.039,-2.519 16.428,-3.048L18.888,-3.592L19.091,-5.806C19.428,-9.529 20.503,-10.265 22.629,-8.222C23.279,-7.598 23.83,-6.933 23.854,-6.746C23.877,-6.558 23.909,-6.215 23.926,-5.982C23.948,-5.634 24.376,-5.578 26.378,-5.658C28.714,-5.752 28.836,-5.726 29.68,-4.954C30.281,-4.405 30.58,-3.852 30.629,-3.19C30.69,-2.376 30.557,-2.128 29.764,-1.585C29.248,-1.233 27.572,-0.545 26.038,-0.056C23.835,0.648 23.247,0.944 23.247,1.354C23.247,1.638 23.393,3.138 23.567,4.683C23.93,7.867 23.7,8.908 22.513,9.449C21.468,9.925 21.19,9.853 20.206,8.834C19.052,7.644 18.694,6.388 18.925,4.322C19.139,2.411 19.015,2.266 17.264,2.407L16.019,2.505L16.427,3.673C16.689,4.43 16.78,5.394 16.682,6.392C16.555,7.699 16.386,8.062 15.6,8.738C13.27,10.743 11.933,11.244 10.747,10.557M-17.745,14.46C-18.252,14.123 -18.932,13.338 -19.258,12.72C-19.889,11.525 -21.118,10.22 -22.368,9.414C-23.234,8.861 -23.707,7.197 -23.183,6.566C-23.008,6.353 -22.266,6.02 -21.534,5.823C-20.803,5.627 -20.082,5.355 -19.935,5.223C-19.785,5.09 -19.65,4.128 -19.634,3.085C-19.535,-3.294 -19.483,-3.451 -17.53,-3.451C-15.215,-3.451 -13.649,-0.684 -14.41,2.059C-14.951,4.004 -14.845,4.424 -13.806,4.418C-12.22,4.41 -12.134,4.23 -12.063,0.732C-11.953,-4.544 -10.798,-6.224 -8.145,-4.958C-6.462,-4.155 -6.214,-1.979 -7.365,1.892C-7.742,3.159 -6.995,8.402 -6.214,9.985C-5.772,10.876 -6.244,12.129 -7.065,12.248C-7.438,12.301 -8.053,12.04 -8.558,11.614C-9.032,11.217 -9.406,10.994 -9.64,10.892C-9.751,10.843 -10.211,10.386 -10.641,9.767C-11.387,8.691 -12.239,8.325 -12.608,8.924C-12.705,9.077 -13.358,9.349 -14.059,9.525C-15.285,9.835 -15.327,9.88 -15.173,10.721C-14.71,13.216 -14.705,14.212 -15.152,14.658C-15.762,15.269 -16.644,15.202 -17.745,14.46" style="fill:rgb(255,255,250);fill-rule:nonzero;"/>
        </g>
        <g transform="matrix(1,0,0,1,91.5234,20.5597)">
            <path d="M0,-1.986C0.935,-3.855 0.812,-5.054 -0.334,-5.218C-0.842,-5.291 -1.063,-5.072 -1.488,-4.081C-2.281,-2.231 -2.47,-1.093 -2.064,-0.605C-1.461,0.123 -0.849,-0.289 0,-1.986M-2.787,4.813C-5.407,3.392 -6.299,2.095 -6.51,-0.62C-6.677,-2.774 -5.76,-6.597 -4.764,-7.906C-4.372,-8.418 -4.053,-8.977 -4.053,-9.148C-4.053,-9.319 -3.492,-9.845 -2.807,-10.317C-1.207,-11.417 0.275,-11.465 1.749,-10.464C3.821,-9.059 4.634,-8.202 4.72,-1.84C4.752,0.618 4.181,1.167 3.451,2.41C3.014,3.152 2.375,3.868 2.033,3.999C1.689,4.129 1.253,4.421 1.065,4.649C0.65,5.148 -1.961,5.26 -2.787,4.813M-17.882,7.239C-19.383,6.458 -19.66,5.889 -19.279,4.378C-18.437,1.028 -18.273,-2.952 -18.838,-6.361C-19.018,-7.455 -18.965,-7.651 -18.366,-8.111C-17.995,-8.397 -17.422,-8.632 -17.094,-8.636C-16.297,-8.645 -14.457,-6.615 -13.659,-4.846C-12.493,-2.26 -12.069,-1.522 -11.819,-1.636C-11.683,-1.7 -11.538,-3.653 -11.499,-5.975C-11.434,-9.697 -11.353,-10.338 -10.805,-11.388C-10.462,-12.044 -10.008,-12.58 -9.794,-12.58C-9.58,-12.58 -9.055,-12.043 -8.63,-11.385C-8.203,-10.728 -7.739,-10.107 -7.598,-10.006C-7.455,-9.904 -7.386,-8.448 -7.445,-6.771C-7.505,-5.093 -7.534,-2.646 -7.512,-1.331C-7.379,6.565 -7.422,7.015 -8.367,7.374C-9.265,7.715 -10.679,7.023 -12.383,5.413C-13.196,4.643 -13.971,4.013 -14.107,4.013C-14.243,4.013 -14.582,4.738 -14.858,5.63C-15.67,8.227 -15.824,8.311 -17.882,7.239M-27.549,7.835C-28.854,7.266 -30.65,5.055 -31.052,3.517C-31.479,1.892 -31.452,-4.821 -31.013,-6.565C-30.842,-7.244 -30.558,-7.798 -30.379,-7.798C-29.841,-7.798 -27.994,-6.424 -27.632,-5.755C-27.432,-5.385 -27.27,-3.753 -27.237,-1.784C-27.189,1.098 -27.111,1.599 -26.682,1.842C-26.299,2.056 -26.088,1.999 -25.802,1.607C-25.594,1.324 -25.424,0.894 -25.42,0.655C-25.419,0.413 -25.104,-0.77 -24.718,-1.975C-24.334,-3.178 -24.006,-4.761 -23.992,-5.489C-23.932,-8.29 -23.314,-8.916 -21.841,-7.676C-20.117,-6.226 -20.027,-2.955 -21.533,3.449C-22.134,6.008 -22.734,6.883 -24.497,7.776C-25.575,8.321 -26.396,8.337 -27.549,7.835M-37.828,9.847C-38.365,9.492 -39.092,8.597 -39.486,7.809C-40.126,6.528 -40.182,6.128 -40.113,3.343L-40.037,0.279L-41.73,-1.346C-42.662,-2.242 -43.424,-3.024 -43.424,-3.086C-43.424,-3.148 -43.676,-4.382 -43.986,-5.83C-44.297,-7.278 -44.548,-9.132 -44.548,-9.952C-44.548,-11.236 -44.45,-11.507 -43.837,-11.909C-42.725,-12.637 -41.508,-12.149 -40.426,-10.539C-39.706,-9.469 -39.496,-8.811 -39.338,-7.109C-39.129,-4.887 -38.761,-4.259 -37.836,-4.554C-37.281,-4.73 -35.678,-6.394 -35.107,-7.385C-34.816,-7.887 -34.747,-7.878 -33.512,-7.153C-32.578,-6.606 -32.129,-6.12 -31.893,-5.403C-31.6,-4.519 -31.641,-4.284 -32.281,-3.192C-32.676,-2.52 -33.478,-1.549 -34.063,-1.034C-34.648,-0.521 -35.143,0.161 -35.16,0.48C-35.295,2.864 -35.888,9.847 -35.98,10.13C-36.15,10.651 -36.756,10.557 -37.828,9.847" style="fill:rgb(255,255,250);fill-rule:nonzero;"/>
        </g>
    </g>
    <g id="Calque-4" serif:id="Calque 4">
        <g transform="matrix(-1,0,0,1,18.059,-10.8868)">
            <rect x="8.436" y="21.012" width="1.187" height="8.496" style="fill:rgb(255,255,250);"/>
        </g>
        <g transform="matrix(1,0,0,1,12.6348,18.465)">
            <path d="M0,-5.531C0.016,-5.387 0.028,-5.225 0.036,-5.046C0.044,-4.865 0.049,-4.716 0.049,-4.595L0.084,-4.595C0.156,-4.748 0.254,-4.889 0.379,-5.021C0.502,-5.154 0.645,-5.269 0.805,-5.369C0.965,-5.469 1.141,-5.548 1.332,-5.603C1.524,-5.66 1.725,-5.687 1.932,-5.687C2.301,-5.687 2.616,-5.625 2.881,-5.502C3.145,-5.377 3.364,-5.212 3.541,-5.004C3.717,-4.795 3.846,-4.552 3.93,-4.271C4.014,-3.992 4.057,-3.691 4.057,-3.371L4.057,0.156L2.928,0.156L2.928,-3C2.928,-3.231 2.91,-3.451 2.875,-3.66C2.838,-3.867 2.772,-4.052 2.676,-4.212C2.58,-4.371 2.448,-4.5 2.28,-4.595C2.112,-4.691 1.896,-4.74 1.633,-4.74C1.184,-4.74 0.818,-4.57 0.534,-4.23C0.25,-3.889 0.108,-3.435 0.108,-2.867L0.108,0.156L-1.02,0.156L-1.02,-4.307C-1.02,-4.459 -1.023,-4.656 -1.031,-4.895C-1.039,-5.135 -1.052,-5.347 -1.068,-5.531L0,-5.531Z" style="fill:rgb(255,255,250);fill-rule:nonzero;"/>
        </g>
        <g transform="matrix(1,0,0,1,21.6709,17.1814)">
            <path d="M0,-2.808C-0.128,-3.016 -0.308,-3.186 -0.54,-3.318C-0.772,-3.451 -1.032,-3.516 -1.319,-3.516C-1.448,-3.516 -1.576,-3.501 -1.704,-3.474C-1.832,-3.446 -1.946,-3.402 -2.046,-3.342C-2.146,-3.283 -2.226,-3.206 -2.286,-3.115C-2.346,-3.022 -2.376,-2.908 -2.376,-2.772C-2.376,-2.533 -2.269,-2.354 -2.052,-2.238C-1.836,-2.122 -1.512,-2.016 -1.08,-1.919C-0.808,-1.856 -0.556,-1.78 -0.323,-1.692C-0.092,-1.604 0.11,-1.494 0.282,-1.362C0.454,-1.23 0.588,-1.072 0.685,-0.888C0.78,-0.704 0.828,-0.488 0.828,-0.24C0.828,0.096 0.765,0.38 0.636,0.612C0.508,0.844 0.338,1.034 0.126,1.182C-0.086,1.33 -0.328,1.436 -0.601,1.5C-0.872,1.564 -1.151,1.596 -1.44,1.596C-1.872,1.596 -2.294,1.512 -2.706,1.344C-3.118,1.176 -3.46,0.921 -3.731,0.576L-2.928,-0.108C-2.776,0.116 -2.565,0.304 -2.298,0.456C-2.03,0.608 -1.735,0.684 -1.416,0.684C-1.272,0.684 -1.134,0.671 -1.002,0.642C-0.87,0.614 -0.75,0.568 -0.642,0.505C-0.534,0.44 -0.448,0.356 -0.384,0.252C-0.319,0.148 -0.288,0.016 -0.288,-0.144C-0.288,-0.408 -0.414,-0.604 -0.666,-0.732C-0.918,-0.86 -1.288,-0.98 -1.776,-1.092C-1.968,-1.14 -2.162,-1.198 -2.358,-1.266C-2.554,-1.334 -2.731,-1.428 -2.892,-1.548C-3.052,-1.667 -3.183,-1.818 -3.282,-1.997C-3.382,-2.178 -3.433,-2.4 -3.433,-2.663C-3.433,-2.968 -3.37,-3.23 -3.246,-3.451C-3.122,-3.669 -2.96,-3.85 -2.76,-3.99C-2.56,-4.13 -2.332,-4.234 -2.076,-4.302C-1.819,-4.37 -1.556,-4.404 -1.284,-4.404C-0.876,-4.404 -0.481,-4.324 -0.103,-4.163C0.278,-4.003 0.571,-3.772 0.78,-3.468L0,-2.808Z" style="fill:rgb(255,255,250);fill-rule:nonzero;"/>
        </g>
        <g transform="matrix(1,0,0,1,27.0234,16.1598)">
            <path d="M0,-2.302L-1.512,-2.302L-1.512,0.653C-1.512,0.996 -1.448,1.241 -1.32,1.388C-1.192,1.536 -0.988,1.61 -0.709,1.61C-0.604,1.61 -0.492,1.598 -0.373,1.577C-0.252,1.554 -0.145,1.522 -0.049,1.477L-0.012,2.402C-0.148,2.45 -0.299,2.487 -0.463,2.515C-0.627,2.544 -0.797,2.557 -0.973,2.557C-1.508,2.557 -1.918,2.41 -2.202,2.114C-2.486,1.818 -2.629,1.374 -2.629,0.782L-2.629,-2.302L-3.721,-2.302L-3.721,-3.226L-2.629,-3.226L-2.629,-4.859L-1.512,-4.859L-1.512,-3.226L0,-3.226L0,-2.302Z" style="fill:rgb(255,255,250);fill-rule:nonzero;"/>
        </g>
        <g transform="matrix(1,0,0,1,31.6309,15.6326)">
            <path d="M0,0.277C-0.279,0.277 -0.57,0.289 -0.869,0.313C-1.17,0.338 -1.441,0.384 -1.686,0.457C-1.93,0.529 -2.132,0.636 -2.292,0.781C-2.452,0.925 -2.531,1.117 -2.531,1.357C-2.531,1.525 -2.498,1.665 -2.43,1.777C-2.361,1.889 -2.271,1.981 -2.16,2.053C-2.048,2.125 -1.924,2.175 -1.787,2.203C-1.652,2.231 -1.512,2.245 -1.367,2.245C-0.84,2.245 -0.434,2.087 -0.15,1.771C0.135,1.455 0.276,1.057 0.276,0.577L0.276,0.277L0,0.277ZM0.276,-0.695C0.276,-1.119 0.148,-1.433 -0.107,-1.637C-0.363,-1.841 -0.704,-1.943 -1.128,-1.943C-1.447,-1.943 -1.75,-1.881 -2.033,-1.757C-2.318,-1.633 -2.556,-1.475 -2.748,-1.283L-3.348,-2.003C-3.068,-2.267 -2.727,-2.475 -2.322,-2.627C-1.918,-2.779 -1.484,-2.855 -1.02,-2.855C-0.611,-2.855 -0.258,-2.796 0.042,-2.681C0.342,-2.565 0.588,-2.408 0.78,-2.206C0.973,-2.007 1.116,-1.771 1.213,-1.499C1.309,-1.227 1.355,-0.935 1.355,-0.622L1.355,1.861C1.355,2.053 1.362,2.256 1.374,2.466C1.387,2.679 1.408,2.853 1.439,2.989L0.42,2.989C0.355,2.717 0.324,2.445 0.324,2.173L0.288,2.173C0.08,2.477 -0.182,2.713 -0.498,2.881C-0.814,3.048 -1.187,3.132 -1.619,3.132C-1.844,3.132 -2.078,3.103 -2.322,3.043C-2.566,2.983 -2.788,2.885 -2.988,2.749C-3.188,2.613 -3.354,2.433 -3.486,2.209C-3.617,1.985 -3.684,1.709 -3.684,1.381C-3.684,0.949 -3.568,0.607 -3.336,0.355C-3.104,0.102 -2.8,-0.089 -2.424,-0.221C-2.048,-0.353 -1.624,-0.439 -1.152,-0.479C-0.68,-0.519 -0.203,-0.538 0.276,-0.538L0.276,-0.695Z" style="fill:rgb(255,255,250);fill-rule:nonzero;"/>
        </g>
        <g transform="matrix(-1,0,0,1,70.798,-10.8958)">
            <rect x="34.835" y="21.012" width="1.128" height="8.505" style="fill:rgb(255,255,250);"/>
        </g>
        <g transform="matrix(-1,0,0,1,76.87,-10.8958)">
            <rect x="37.871" y="21.012" width="1.128" height="8.505" style="fill:rgb(255,255,250);"/>
        </g>
        <g transform="matrix(1,0,0,1,13.3477,29.9042)">
            <path d="M0,-5.688L1.283,-1.343L1.309,-1.343L2.664,-5.688L3.852,-5.688L5.232,-1.343L5.256,-1.343L6.54,-5.688L7.729,-5.688L5.844,0L4.668,0L3.264,-4.272L3.24,-4.272L1.848,0L0.672,0L-1.225,-5.688L0,-5.688Z" style="fill:rgb(255,255,250);fill-rule:nonzero;"/>
        </g>
        <g transform="matrix(1,0,0,1,0,11.7042)">
            <path d="M23.355,18.2L22.227,18.2L22.227,12.512L23.355,12.512L23.355,18.2ZM23.535,10.46C23.535,10.668 23.462,10.84 23.315,10.977C23.168,11.113 22.992,11.181 22.785,11.181C22.58,11.181 22.404,11.111 22.262,10.97C22.119,10.83 22.048,10.66 22.048,10.46C22.048,10.252 22.119,10.078 22.262,9.939C22.404,9.798 22.58,9.729 22.785,9.729C22.992,9.729 23.168,9.798 23.315,9.939C23.462,10.078 23.535,10.252 23.535,10.46" style="fill:rgb(255,255,250);fill-rule:nonzero;"/>
        </g>
        <g transform="matrix(1,0,0,1,28.1797,27.443)">
            <path d="M0,-2.302L-1.512,-2.302L-1.512,0.653C-1.512,0.996 -1.448,1.241 -1.32,1.388C-1.192,1.536 -0.988,1.61 -0.709,1.61C-0.604,1.61 -0.492,1.598 -0.373,1.577C-0.252,1.554 -0.145,1.522 -0.049,1.477L-0.012,2.402C-0.148,2.45 -0.299,2.487 -0.463,2.515C-0.627,2.544 -0.797,2.557 -0.973,2.557C-1.508,2.557 -1.918,2.41 -2.202,2.114C-2.486,1.818 -2.629,1.374 -2.629,0.782L-2.629,-2.302L-3.721,-2.302L-3.721,-3.227L-2.629,-3.227L-2.629,-4.859L-1.512,-4.859L-1.512,-3.227L0,-3.227L0,-2.302Z" style="fill:rgb(255,255,250);fill-rule:nonzero;"/>
        </g>
        <g transform="matrix(1,0,0,1,30.5313,26.2225)">
            <path d="M0,-1.142C0.137,-1.421 0.368,-1.662 0.696,-1.862C1.023,-2.062 1.393,-2.162 1.801,-2.162C2.168,-2.162 2.484,-2.1 2.748,-1.976C3.012,-1.852 3.232,-1.686 3.408,-1.478C3.584,-1.27 3.714,-1.026 3.798,-0.746C3.882,-0.465 3.924,-0.165 3.924,0.154L3.924,3.682L2.796,3.682L2.796,0.531C2.796,0.298 2.777,0.078 2.742,-0.131C2.706,-0.339 2.641,-0.524 2.544,-0.684C2.448,-0.845 2.318,-0.973 2.154,-1.07C1.99,-1.165 1.775,-1.214 1.512,-1.214C1.064,-1.214 0.696,-1.043 0.408,-0.703C0.12,-0.362 -0.023,0.093 -0.023,0.663L-0.023,3.682L-1.152,3.682L-1.152,-4.824L-0.023,-4.824L-0.023,-1.142L0,-1.142Z" style="fill:rgb(255,255,250);fill-rule:nonzero;"/>
        </g>
    </g>
</svg>
