<?xml version="1.0" encoding="UTF-8" standalone="no"?>
<svg
   xmlns:dc="http://purl.org/dc/elements/1.1/"
   xmlns:cc="http://creativecommons.org/ns#"
   xmlns:rdf="http://www.w3.org/1999/02/22-rdf-syntax-ns#"
   xmlns:svg="http://www.w3.org/2000/svg"
   xmlns="http://www.w3.org/2000/svg"
   xmlns:sodipodi="http://sodipodi.sourceforge.net/DTD/sodipodi-0.dtd"
   xmlns:inkscape="http://www.inkscape.org/namespaces/inkscape"
   version="1.1"
   id="svg28"
   xml:space="preserve"
   width="156"
   height="40"
   viewBox="0 0 156 40"
   sodipodi:docname="install-with-yunohost.svg"
   inkscape:export-filename="/Users/macmini/image.png"
   inkscape:export-xdpi="96"
   inkscape:export-ydpi="96"
   inkscape:version="1.0.1 (c497b03c, 2020-09-10)"><metadata
     id="metadata34"><rdf:RDF><cc:Work
         rdf:about=""><dc:format>image/svg+xml</dc:format><dc:type
           rdf:resource="http://purl.org/dc/dcmitype/StillImage" /><dc:title></dc:title></cc:Work></rdf:RDF></metadata><defs
     id="defs32" /><sodipodi:namedview
     pagecolor="#ffffff"
     bordercolor="#666666"
     borderopacity="1"
     objecttolerance="10"
     gridtolerance="10"
     guidetolerance="10"
     inkscape:pageopacity="0"
     inkscape:pageshadow="2"
     inkscape:window-width="1579"
     inkscape:window-height="828"
     id="namedview30"
     showgrid="false"
     inkscape:zoom="3.7403846"
     inkscape:cx="104"
     inkscape:cy="26.666664"
     inkscape:window-x="232"
     inkscape:window-y="117"
     inkscape:window-maximized="0"
     inkscape:current-layer="g36" /><g
     id="g36"
     inkscape:groupmode="layer"
     inkscape:label="ink_ext_XXXXXX"
     transform="matrix(1.3333333,0,0,-1.3333333,0,53.333331)"><g
       id="g38"
       transform="matrix(0.075,0,0,0.075,0,9.9999992)"><path
         d="M 1507,0 H 53.0195 C 23.7695,0 0,23.8164 0,53.0742 V 346.922 C 0,376.191 23.7695,400 53.0195,400 H 1507 c 29.23,0 53,-23.809 53,-53.078 V 53.0742 C 1560,23.8164 1536.23,0 1507,0"
         style="fill:#6d6d6c;fill-opacity:1;fill-rule:nonzero;stroke:none"
         id="path40" /><path
         d="M 53.0469,390.879 C 28.75,390.879 8.98438,371.117 8.98438,346.82 V 53.1758 C 8.98438,28.8789 28.75,9.12109 53.0469,9.12109 H 1507.97 c 24.29,0 44.04,19.75781 44.04,44.05471 V 346.82 c 0,24.297 -19.75,44.059 -44.04,44.059 H 53.0469"
         style="fill:#09060b;fill-opacity:1;fill-rule:nonzero;stroke:none"
         id="path42" /><path
         d="m 1194.94,174.211 c 10,3.824 15.02,20.266 8.98,29.477 -2.46,3.75 -6.1,6.832 -8.07,6.832 -11.06,0 -22.78,-26.25 -15.59,-34.954 3.89,-4.648 5.59,-4.804 14.68,-1.355 z m -6.99,-52.57 c -13.36,2.312 -32.73,17.312 -44.41,34.367 -8.33,12.156 -9.28,15.515 -9.09,31.972 0.27,21.407 6.94,46.321 15.26,56.899 6.6,8.398 26.7,18.48 36.85,18.48 6.16,0 20.41,-5.25 42.21,-15.523 18.81,-8.856 22.07,-14.363 26.22,-44.121 l 3.05,-21.969 -6.84,-25.816 c -5.57,-11.899 -16.27,-20.063 -19.69,-23.285 -8.07,-7.586 -30.52,-13.25 -43.56,-11.004 z m 113.24,-2.325 c -6.02,3.489 -17.78,16.582 -22.98,25.606 -1.84,3.191 -3.42,11.875 -3.47,19.226 -0.15,19.7 8.11,32.079 12.4,18.606 4.07,-12.805 19.13,-18.543 26.22,-9.988 5.71,6.89 -3.87,23.004 -27.58,46.414 -21.33,21.054 -22.27,22.484 -22.27,34.605 0,18.793 5.4,26.602 24.69,35.817 16.02,7.671 17.43,7.875 28.74,4.238 15.41,-4.945 33.51,-22.36 32.27,-31.074 -0.77,-5.426 -2.55,-6.375 -12.01,-6.375 -6.12,0 -12.69,-1.004 -14.59,-2.235 -5.71,-3.687 -3.99,-12.09 3.47,-16.965 6.83,-4.48 6.93,-4.453 6.93,3.34 0,7.653 0.72,8.047 24.33,13.274 l 24.33,5.379 2,21.879 c 3.32,36.808 13.97,44.078 34.97,23.882 6.43,-6.168 11.88,-12.742 12.11,-14.59 0.23,-1.855 0.56,-5.242 0.71,-7.542 0.23,-3.442 4.46,-4 24.25,-3.208 23.1,0.926 24.29,0.672 32.63,-6.96 5.95,-5.426 8.91,-10.887 9.38,-17.442 0.62,-8.039 -0.71,-10.492 -8.55,-15.855 -5.1,-3.485 -21.66,-10.289 -36.82,-15.125 -21.77,-6.953 -27.58,-9.883 -27.58,-13.93 0,-2.816 1.42,-17.641 3.16,-32.91 3.57,-31.477 1.31,-41.77 -10.43,-47.117 -10.33,-4.7 -13.07,-3.989 -22.8,6.082 -11.41,11.765 -14.94,24.179 -12.67,44.597 2.11,18.891 0.89,20.325 -16.42,18.934 l -12.31,-0.973 4.04,-11.543 c 2.58,-7.48 3.49,-17.004 2.51,-26.875 -1.26,-12.922 -2.92,-16.504 -10.7,-23.191 -23.03,-19.824 -36.24,-24.777 -47.96,-17.981 z M 1019.53,80.7305 c -5.02,3.332 -11.74,11.0937 -14.96,17.1992 -6.242,11.8163 -18.386,24.7153 -30.742,32.6833 -8.574,5.461 -13.242,21.914 -8.047,28.157 1.719,2.109 9.055,5.402 16.289,7.343 7.227,1.934 14.348,4.629 15.821,5.938 1.464,1.308 2.789,10.82 2.969,21.129 0.97,63.058 1.48,64.601 20.79,64.601 22.88,0 38.37,-27.343 30.84,-54.461 -5.35,-19.226 -4.29,-23.379 5.99,-23.32 15.67,0.078 16.52,1.863 17.21,36.441 1.09,52.153 12.52,68.754 38.73,56.247 16.65,-7.938 19.11,-29.45 7.71,-67.715 -3.72,-12.535 3.67,-64.36 11.4,-80.012 4.36,-8.801 -0.32,-21.184 -8.42,-22.363 -3.69,-0.52 -9.78,2.058 -14.76,6.269 -4.69,3.926 -8.4,6.121 -10.69,7.141 -1.11,0.484 -5.66,5 -9.9,11.121 -7.39,10.637 -15.8,14.25 -19.45,8.332 -0.96,-1.516 -7.41,-4.199 -14.34,-5.949 -12.13,-3.059 -12.53,-3.504 -11.01,-11.817 4.57,-24.6677 4.61,-34.5114 0.2,-38.9255 -6.03,-6.0351 -14.74,-5.3711 -25.63,1.961 v 0"
         style="fill:#fffff8;fill-opacity:1;fill-rule:nonzero;stroke:none"
         id="path44" /><path
         d="m 930.098,220.586 c 9.226,18.473 8.007,30.328 -3.301,31.953 -5.02,0.719 -7.227,-1.441 -11.414,-11.238 -7.832,-18.293 -9.707,-29.543 -5.695,-34.367 5.964,-7.192 12.011,-3.125 20.41,13.652 z m -27.547,-67.207 c -25.918,14.043 -34.719,26.875 -36.809,53.707 -1.66,21.289 7.41,59.086 17.266,72.023 3.855,5.063 6.023,9.411 7.019,12.274 0.571,1.609 5.547,6.894 12.328,11.562 15.809,10.875 30.465,11.344 45.016,1.45 20.488,-13.887 28.527,-22.352 29.375,-85.247 0.324,-24.3 -5.328,-29.722 -12.535,-42.007 -4.316,-7.344 -10.637,-14.414 -14.016,-15.715 -3.398,-1.281 -7.722,-4.168 -9.582,-6.426 -4.09,-4.934 -29.898,-6.035 -38.062,-1.621 z M 753.125,129.395 c -14.84,7.722 -17.578,13.347 -13.812,28.293 8.32,33.097 9.941,72.449 4.363,106.144 -1.778,10.82 -1.254,12.754 4.66,17.305 3.672,2.824 9.336,5.152 12.582,5.191 8,0.082 26.184,-19.976 34.141,-37.465 11.523,-25.566 15.711,-32.867 18.183,-31.734 1.36,0.637 2.781,19.937 3.176,42.891 0.652,36.796 1.441,43.128 6.875,53.511 3.379,6.489 7.867,11.782 9.977,11.782 2.121,0 7.316,-5.309 11.503,-11.813 4.231,-6.492 8.813,-12.637 10.215,-13.637 1.407,-1 2.082,-15.39 1.504,-31.972 -0.594,-16.59 -0.887,-40.782 -0.652,-53.782 1.308,-78.054 0.89,-82.5 -8.457,-86.043 -8.887,-3.371 -22.863,3.465 -39.695,19.383 -8.047,7.61 -15.696,13.84 -17.051,13.84 -1.391,0 -4.774,-7.168 -7.5,-15.984 -8.024,-25.676 -9.547,-26.504 -30.012,-15.91 z m -95.562,-5.887 c -12.911,5.625 -30.665,27.488 -34.629,42.683 -4.219,16.067 -3.957,82.426 0.386,99.661 1.692,6.711 4.496,12.195 6.266,12.195 5.316,0 23.574,-13.59 27.156,-20.203 1.981,-3.656 3.578,-19.793 3.899,-39.254 0.472,-28.496 1.246,-33.445 5.492,-35.836 3.785,-2.117 5.871,-1.555 8.703,2.312 2.055,2.805 3.734,7.047 3.773,9.411 0.008,2.386 3.125,14.093 6.938,26.003 3.793,11.887 7.043,27.54 7.172,34.739 0.601,27.687 6.699,33.879 21.269,21.617 17.043,-14.332 17.926,-46.672 3.043,-109.973 -5.937,-25.293 -11.875,-33.941 -29.301,-42.781 -10.66,-5.383 -18.777,-5.535 -30.167,-0.574 z M 555.945,103.621 c -5.308,3.508 -12.492,12.348 -16.394,20.141 -6.324,12.664 -6.871,16.621 -6.196,44.16 l 0.75,30.277 -15.925,13.227 c -9.211,8.851 -14.981,13.75 -17.551,20.027 -0.234,0.574 -2.488,12.82 -5.563,27.137 -3.07,14.308 -5.55,32.644 -5.55,40.75 0,12.691 0.968,15.371 7.027,19.34 10.996,7.203 23.027,2.375 33.723,-13.543 7.117,-10.571 9.191,-17.086 10.754,-33.91 2.066,-21.957 5.703,-28.164 14.847,-25.254 5.485,1.738 21.336,18.191 26.977,27.988 2.875,4.965 3.558,4.867 15.769,-2.301 9.235,-5.406 13.672,-10.211 16.004,-17.289 2.903,-8.742 2.496,-11.07 -3.836,-21.867 -3.902,-6.641 -11.828,-16.238 -17.613,-21.32 -5.789,-5.079 -10.672,-11.821 -10.848,-14.977 -1.336,-23.562 -7.191,-92.586 -8.109,-95.387 -1.684,-5.1559 -7.668,-4.2262 -18.266,2.801"
         style="fill:#fffff8;fill-opacity:1;fill-rule:nonzero;stroke:none"
         id="path46" /><path
         d="M 106.367,215.32 H 93.7148 v 90.602 H 106.367 V 215.32"
         style="fill:#fffff8;fill-opacity:1;fill-rule:nonzero;stroke:none"
         id="path48" /><path
         d="m 138.484,275.969 c 0.168,-1.528 0.301,-3.258 0.387,-5.176 0.082,-1.93 0.133,-3.52 0.133,-4.797 h 0.387 c 0.761,1.625 1.8,3.129 3.136,4.531 1.313,1.422 2.832,2.657 4.543,3.715 1.703,1.074 3.575,1.903 5.625,2.496 2.039,0.602 4.176,0.895 6.387,0.895 3.93,0 7.301,-0.66 10.129,-1.981 2.809,-1.332 5.152,-3.086 7.035,-5.308 1.875,-2.223 3.246,-4.817 4.141,-7.809 0.89,-2.972 1.351,-6.18 1.351,-9.597 V 215.32 h -12.035 v 33.657 c 0,2.468 -0.191,4.812 -0.558,7.039 -0.395,2.211 -1.098,4.179 -2.125,5.886 -1.012,1.696 -2.426,3.071 -4.223,4.094 -1.785,1.016 -4.082,1.531 -6.895,1.531 -4.793,0 -8.691,-1.804 -11.718,-5.422 -3.036,-3.644 -4.539,-8.488 -4.539,-14.542 V 215.32 h -12.032 v 47.602 c 0,1.613 -0.039,3.715 -0.125,6.273 -0.082,2.559 -0.215,4.813 -0.394,6.774 h 11.39"
         style="fill:#fffff8;fill-opacity:1;fill-rule:nonzero;stroke:none"
         id="path50" /><path
         d="m 234.84,260.613 c -1.371,2.223 -3.281,4.039 -5.758,5.442 -2.48,1.418 -5.254,2.113 -8.32,2.113 -1.367,0 -2.731,-0.148 -4.102,-0.441 -1.351,-0.301 -2.578,-0.774 -3.637,-1.414 -1.066,-0.629 -1.918,-1.446 -2.57,-2.422 -0.629,-0.993 -0.949,-2.211 -0.949,-3.661 0,-2.55 1.137,-4.449 3.461,-5.691 2.293,-1.226 5.758,-2.359 10.355,-3.391 2.907,-0.679 5.586,-1.492 8.067,-2.425 2.465,-0.934 4.621,-2.121 6.465,-3.524 1.82,-1.41 3.242,-3.094 4.289,-5.047 1.011,-1.968 1.531,-4.273 1.531,-6.914 0,-3.586 -0.68,-6.613 -2.063,-9.09 -1.359,-2.468 -3.168,-4.492 -5.433,-6.074 -2.254,-1.574 -4.844,-2.707 -7.738,-3.383 -2.903,-0.687 -5.879,-1.035 -8.965,-1.035 -4.602,0 -9.098,0.895 -13.496,2.692 -4.383,1.789 -8.032,4.519 -10.926,8.187 l 8.562,7.289 c 1.621,-2.375 3.867,-4.386 6.731,-6.008 2.844,-1.628 5.988,-2.437 9.39,-2.437 1.536,0 3.008,0.152 4.411,0.453 1.414,0.305 2.691,0.793 3.859,1.465 1.137,0.687 2.051,1.582 2.742,2.699 0.692,1.106 1.016,2.516 1.016,4.215 0,2.812 -1.34,4.914 -4.024,6.273 -2.699,1.364 -6.64,2.645 -11.84,3.84 -2.043,0.52 -4.121,1.129 -6.207,1.852 -2.078,0.73 -3.988,1.73 -5.691,3.012 -1.711,1.269 -3.102,2.875 -4.156,4.785 -1.067,1.937 -1.606,4.289 -1.606,7.097 0,3.258 0.664,6.051 1.981,8.403 1.328,2.332 3.058,4.261 5.191,5.746 2.141,1.5 4.563,2.605 7.289,3.328 2.739,0.734 5.547,1.086 8.449,1.086 4.344,0 8.559,-0.852 12.59,-2.559 4.067,-1.707 7.192,-4.176 9.414,-7.414 l -8.312,-7.047"
         style="fill:#fffff8;fill-opacity:1;fill-rule:nonzero;stroke:none"
         id="path52" /><path
         d="m 291.91,266.117 h -16.121 v -31.508 c 0,-3.656 0.68,-6.269 2.043,-7.839 1.363,-1.575 3.535,-2.368 6.52,-2.368 1.117,0 2.312,0.125 3.582,0.356 1.285,0.242 2.433,0.59 3.449,1.058 l 0.394,-9.855 c -1.457,-0.508 -3.054,-0.902 -4.804,-1.203 -1.746,-0.309 -3.567,-0.449 -5.434,-0.449 -5.703,0 -10.086,1.566 -13.109,4.73 -3.035,3.149 -4.559,7.891 -4.559,14.199 v 32.879 h -11.629 v 9.852 h 11.629 v 17.414 h 11.918 v -17.414 h 16.121 v -9.852"
         style="fill:#fffff8;fill-opacity:1;fill-rule:nonzero;stroke:none"
         id="path54" /><path
         d="m 341.035,244.242 c -2.972,0 -6.078,-0.121 -9.265,-0.387 -3.207,-0.261 -6.106,-0.757 -8.707,-1.531 -2.598,-0.769 -4.75,-1.918 -6.461,-3.453 -1.704,-1.543 -2.559,-3.582 -2.559,-6.152 0,-1.785 0.355,-3.27 1.078,-4.465 0.734,-1.203 1.695,-2.184 2.883,-2.957 1.191,-0.762 2.519,-1.305 3.973,-1.586 1.441,-0.305 2.933,-0.453 4.488,-0.453 5.613,0 9.941,1.683 12.969,5.055 3.039,3.371 4.554,7.605 4.554,12.734 v 3.195 z m 2.953,10.363 c 0,4.516 -1.375,7.875 -4.101,10.047 -2.719,2.168 -6.356,3.254 -10.871,3.254 -3.407,0 -6.633,-0.648 -9.661,-1.976 -3.039,-1.317 -5.566,-3.008 -7.625,-5.063 l -6.386,7.688 c 2.972,2.812 6.621,5.031 10.926,6.66 4.316,1.605 8.933,2.418 13.89,2.418 4.356,0 8.125,-0.621 11.324,-1.848 3.2,-1.238 5.817,-2.914 7.871,-5.066 2.051,-2.114 3.575,-4.641 4.61,-7.535 1.023,-2.907 1.523,-6.02 1.523,-9.356 v -26.48 c 0,-2.051 0.078,-4.203 0.2,-6.45 0.14,-2.277 0.367,-4.128 0.695,-5.578 h -10.871 c -0.688,2.899 -1.016,5.801 -1.016,8.707 h -0.394 c -2.211,-3.25 -4.997,-5.75 -8.383,-7.547 -3.364,-1.789 -7.344,-2.691 -11.953,-2.691 -2.387,0 -4.887,0.316 -7.496,0.969 -2.602,0.629 -4.965,1.672 -7.098,3.133 -2.125,1.445 -3.899,3.355 -5.309,5.754 -1.402,2.378 -2.105,5.335 -2.105,8.832 0,4.597 1.23,8.238 3.707,10.925 2.48,2.703 5.719,4.743 9.726,6.153 4.004,1.402 8.532,2.316 13.559,2.746 5.035,0.426 10.121,0.637 15.238,0.637 v 1.667"
         style="fill:#fffff8;fill-opacity:1;fill-rule:nonzero;stroke:none"
         id="path56" /><path
         d="m 387.223,215.32 h -12.028 v 90.696 h 12.028 V 215.32"
         style="fill:#fffff8;fill-opacity:1;fill-rule:nonzero;stroke:none"
         id="path58" /><path
         d="m 419.605,215.32 h -12.031 v 90.696 h 12.031 V 215.32"
         style="fill:#fffff8;fill-opacity:1;fill-rule:nonzero;stroke:none"
         id="path60" /><path
         d="m 146.086,155.664 13.687,-46.309 h 0.266 l 14.457,46.309 h 12.66 l 14.719,-46.309 h 0.254 l 13.695,46.309 h 12.668 L 208.402,95 h -12.547 l -14.972,45.574 h -0.242 L 165.797,95 h -12.543 l -20.227,60.664 h 13.059"
         style="fill:#fffff8;fill-opacity:1;fill-rule:nonzero;stroke:none"
         id="path62" /><path
         d="m 252.793,95 h -12.016 v 60.664 h 12.016 z m 1.918,82.539 c 0,-2.219 -0.781,-4.043 -2.34,-5.508 -1.582,-1.457 -3.449,-2.168 -5.66,-2.168 -2.176,0 -4.055,0.75 -5.578,2.239 -1.524,1.492 -2.278,3.308 -2.278,5.437 0,2.219 0.754,4.082 2.278,5.566 1.523,1.504 3.402,2.247 5.578,2.247 2.211,0 4.078,-0.743 5.66,-2.247 1.559,-1.484 2.34,-3.347 2.34,-5.566"
         style="fill:#fffff8;fill-opacity:1;fill-rule:nonzero;stroke:none"
         id="path64" /><path
         d="m 304.234,145.813 h -16.125 v -31.516 c 0,-3.645 0.68,-6.262 2.051,-7.844 1.356,-1.582 3.535,-2.371 6.512,-2.371 1.117,0 2.32,0.137 3.594,0.359 1.289,0.247 2.425,0.586 3.461,1.055 l 0.382,-9.8515 c -1.449,-0.5078 -3.054,-0.9101 -4.808,-1.2109 -1.758,-0.3008 -3.563,-0.4492 -5.434,-0.4492 -5.707,0 -10.074,1.582 -13.109,4.7383 -3.028,3.1403 -4.551,7.8863 -4.551,14.2073 v 32.883 h -11.644 v 9.851 h 11.644 v 17.402 h 11.902 v -17.402 h 16.125 v -9.851"
         style="fill:#fffff8;fill-opacity:1;fill-rule:nonzero;stroke:none"
         id="path66" /><path
         d="m 329.309,146.445 c 1.461,2.989 3.929,5.547 7.425,7.676 3.493,2.149 7.422,3.203 11.778,3.203 3.922,0 7.289,-0.664 10.101,-1.98 2.813,-1.321 5.16,-3.086 7.035,-5.305 1.879,-2.219 3.262,-4.836 4.165,-7.82 0.886,-2.981 1.335,-6.172 1.335,-9.582 V 95 h -12.027 v 33.613 c 0,2.481 -0.199,4.832 -0.574,7.051 -0.379,2.227 -1.082,4.199 -2.106,5.891 -1.027,1.734 -2.41,3.101 -4.16,4.121 -1.758,1.012 -4.043,1.543 -6.855,1.543 -4.766,0 -8.692,-1.828 -11.766,-5.449 -3.074,-3.633 -4.597,-8.489 -4.597,-14.563 V 95 H 317.02 v 90.703 h 12.043 v -39.258 h 0.246"
         style="fill:#fffff8;fill-opacity:1;fill-rule:nonzero;stroke:none"
         id="path68" /></g></g></svg>
