<?xml version="1.0" encoding="UTF-8" standalone="no"?>
<!DOCTYPE svg PUBLIC "-//W3C//DTD SVG 1.1//EN" "http://www.w3.org/Graphics/SVG/1.1/DTD/svg11.dtd">
<svg width="100%" height="100%" viewBox="0 0 156 40" version="1.1" xmlns="http://www.w3.org/2000/svg" xmlns:xlink="http://www.w3.org/1999/xlink" xml:space="preserve" xmlns:serif="http://www.serif.com/" style="fill-rule:evenodd;clip-rule:evenodd;stroke-linejoin:round;stroke-miterlimit:2;">
    <g id="Calque-3" serif:id="Calque 3">
    </g>
    <g id="Calque-2" serif:id="Calque 2">
    </g>
    <g id="Calque-4" serif:id="Calque 4">
    </g>
    <g transform="matrix(1,0,0,1,150.7,0)">
        <g id="Calque-31" serif:id="Calque 3">
            <path d="M0,40L-145.398,40C-148.323,40 -150.7,37.618 -150.7,34.692L-150.7,5.308C-150.7,2.381 -148.323,0 -145.398,0L0,0C2.923,0 5.3,2.381 5.3,5.308L5.3,34.692C5.3,37.618 2.923,40 0,40" style="fill:rgb(158,157,155);fill-rule:nonzero;"/>
        </g>
    </g>
    <g id="Calque-21" serif:id="Calque 2">
        <g transform="matrix(1,0,0,1,5.3047,39.0744)">
            <path d="M0,-38.176C-2.43,-38.176 -4.406,-36.2 -4.406,-33.77L-4.406,-4.405C-4.406,-1.976 -2.43,0 0,0L145.492,0C147.921,0 149.896,-1.976 149.896,-4.405L149.896,-33.77C149.896,-36.2 147.921,-38.176 145.492,-38.176L0,-38.176Z" style="fill:rgb(1,0,7);fill-rule:nonzero;"/>
        </g>
        <g transform="matrix(1,0,0,1,118.358,18.2616)">
            <path d="M0,5.004C1.012,4.617 1.519,2.953 0.908,2.022C0.66,1.642 0.291,1.331 0.092,1.331C-1.027,1.331 -2.213,3.986 -1.484,4.866C-1.092,5.337 -0.921,5.353 0,5.004M-0.708,10.321C-2.059,10.088 -4.019,8.57 -5.2,6.846C-6.044,5.615 -6.139,5.275 -6.119,3.611C-6.093,1.445 -5.418,-1.075 -4.576,-2.145C-3.908,-2.995 -1.875,-4.015 -0.849,-4.015C-0.226,-4.015 1.216,-3.484 3.421,-2.444C5.323,-1.548 5.654,-0.991 6.073,2.019L6.382,4.241L5.69,6.854C5.127,8.057 4.045,8.883 3.699,9.208C2.882,9.976 0.61,10.549 -0.708,10.321M10.747,10.557C10.138,10.204 8.949,8.879 8.424,7.967C8.235,7.644 8.077,6.766 8.071,6.022C8.056,4.029 8.893,2.776 9.326,4.14C9.737,5.435 11.261,6.016 11.979,5.15C12.557,4.453 11.588,2.822 9.188,0.455C7.031,-1.675 6.936,-1.82 6.936,-3.046C6.936,-4.947 7.481,-5.737 9.434,-6.669C11.055,-7.446 11.197,-7.466 12.341,-7.098C13.9,-6.598 15.73,-4.836 15.604,-3.954C15.527,-3.406 15.348,-3.31 14.39,-3.31C13.771,-3.31 13.106,-3.208 12.913,-3.083C12.337,-2.711 12.512,-1.861 13.266,-1.368C13.957,-0.914 13.967,-0.917 13.967,-1.705C13.967,-2.479 14.039,-2.519 16.428,-3.048L18.888,-3.592L19.091,-5.806C19.428,-9.529 20.503,-10.265 22.629,-8.222C23.279,-7.598 23.83,-6.933 23.854,-6.746C23.877,-6.558 23.909,-6.215 23.926,-5.982C23.948,-5.634 24.376,-5.578 26.378,-5.658C28.714,-5.752 28.836,-5.726 29.68,-4.954C30.281,-4.405 30.58,-3.852 30.629,-3.19C30.69,-2.376 30.557,-2.128 29.764,-1.585C29.248,-1.233 27.572,-0.545 26.038,-0.056C23.835,0.648 23.247,0.944 23.247,1.354C23.247,1.638 23.393,3.138 23.567,4.683C23.93,7.867 23.7,8.908 22.513,9.449C21.468,9.925 21.19,9.853 20.206,8.834C19.052,7.644 18.694,6.388 18.925,4.322C19.139,2.411 19.015,2.266 17.264,2.407L16.019,2.505L16.427,3.673C16.689,4.43 16.78,5.394 16.682,6.392C16.555,7.699 16.386,8.062 15.6,8.738C13.27,10.743 11.933,11.244 10.747,10.557M-17.745,14.46C-18.252,14.123 -18.932,13.338 -19.258,12.72C-19.889,11.525 -21.118,10.22 -22.368,9.414C-23.234,8.861 -23.707,7.197 -23.183,6.566C-23.008,6.353 -22.266,6.02 -21.534,5.823C-20.803,5.627 -20.082,5.355 -19.935,5.223C-19.785,5.09 -19.65,4.128 -19.634,3.085C-19.535,-3.294 -19.483,-3.451 -17.53,-3.451C-15.215,-3.451 -13.649,-0.684 -14.41,2.059C-14.951,4.004 -14.845,4.424 -13.806,4.418C-12.22,4.41 -12.134,4.23 -12.063,0.732C-11.953,-4.544 -10.798,-6.224 -8.145,-4.958C-6.462,-4.155 -6.214,-1.979 -7.365,1.892C-7.742,3.159 -6.995,8.402 -6.214,9.985C-5.772,10.876 -6.244,12.129 -7.065,12.248C-7.438,12.301 -8.053,12.04 -8.558,11.614C-9.032,11.217 -9.406,10.994 -9.64,10.892C-9.751,10.843 -10.211,10.386 -10.641,9.767C-11.387,8.691 -12.239,8.325 -12.608,8.924C-12.705,9.077 -13.358,9.349 -14.059,9.525C-15.285,9.835 -15.327,9.88 -15.173,10.721C-14.71,13.216 -14.705,14.212 -15.152,14.658C-15.762,15.269 -16.644,15.202 -17.745,14.46" style="fill:rgb(255,255,250);fill-rule:nonzero;"/>
        </g>
        <g transform="matrix(1,0,0,1,92.0234,20.5597)">
            <path d="M0,-1.986C0.935,-3.855 0.812,-5.054 -0.334,-5.218C-0.842,-5.291 -1.063,-5.072 -1.488,-4.081C-2.281,-2.231 -2.47,-1.093 -2.064,-0.605C-1.461,0.123 -0.849,-0.289 0,-1.986M-2.787,4.813C-5.407,3.392 -6.299,2.095 -6.51,-0.62C-6.677,-2.774 -5.76,-6.597 -4.764,-7.906C-4.372,-8.418 -4.053,-8.977 -4.053,-9.148C-4.053,-9.319 -3.492,-9.845 -2.807,-10.317C-1.207,-11.417 0.275,-11.465 1.749,-10.464C3.821,-9.059 4.634,-8.202 4.72,-1.84C4.752,0.618 4.181,1.167 3.451,2.41C3.014,3.152 2.375,3.868 2.033,3.999C1.689,4.129 1.253,4.421 1.065,4.649C0.65,5.148 -1.961,5.26 -2.787,4.813M-17.882,7.239C-19.383,6.458 -19.66,5.889 -19.279,4.378C-18.437,1.028 -18.273,-2.952 -18.838,-6.361C-19.018,-7.455 -18.965,-7.651 -18.366,-8.111C-17.995,-8.397 -17.422,-8.632 -17.094,-8.636C-16.297,-8.645 -14.457,-6.615 -13.659,-4.846C-12.493,-2.26 -12.069,-1.522 -11.819,-1.636C-11.683,-1.7 -11.538,-3.653 -11.499,-5.975C-11.434,-9.697 -11.353,-10.338 -10.805,-11.388C-10.462,-12.044 -10.008,-12.58 -9.794,-12.58C-9.58,-12.58 -9.055,-12.043 -8.63,-11.385C-8.203,-10.728 -7.739,-10.107 -7.598,-10.006C-7.455,-9.904 -7.386,-8.448 -7.445,-6.771C-7.505,-5.093 -7.534,-2.646 -7.512,-1.331C-7.379,6.565 -7.422,7.015 -8.367,7.374C-9.265,7.715 -10.679,7.023 -12.383,5.413C-13.196,4.643 -13.971,4.013 -14.107,4.013C-14.243,4.013 -14.582,4.738 -14.858,5.63C-15.67,8.227 -15.824,8.311 -17.882,7.239M-27.549,7.835C-28.854,7.266 -30.65,5.055 -31.052,3.517C-31.479,1.892 -31.452,-4.821 -31.013,-6.565C-30.842,-7.244 -30.558,-7.798 -30.379,-7.798C-29.841,-7.798 -27.994,-6.424 -27.632,-5.755C-27.432,-5.385 -27.27,-3.753 -27.237,-1.784C-27.189,1.098 -27.111,1.599 -26.682,1.842C-26.299,2.056 -26.088,1.999 -25.802,1.607C-25.594,1.324 -25.424,0.894 -25.42,0.655C-25.419,0.413 -25.104,-0.77 -24.718,-1.975C-24.334,-3.178 -24.006,-4.761 -23.992,-5.489C-23.932,-8.29 -23.314,-8.916 -21.841,-7.676C-20.117,-6.226 -20.027,-2.955 -21.533,3.449C-22.134,6.008 -22.734,6.883 -24.497,7.776C-25.575,8.321 -26.396,8.337 -27.549,7.835M-37.828,9.847C-38.365,9.492 -39.092,8.597 -39.486,7.809C-40.126,6.528 -40.182,6.128 -40.113,3.343L-40.037,0.279L-41.73,-1.346C-42.662,-2.242 -43.424,-3.024 -43.424,-3.086C-43.424,-3.148 -43.676,-4.382 -43.986,-5.83C-44.297,-7.278 -44.548,-9.132 -44.548,-9.952C-44.548,-11.236 -44.45,-11.507 -43.837,-11.909C-42.725,-12.637 -41.508,-12.149 -40.426,-10.539C-39.706,-9.469 -39.496,-8.811 -39.338,-7.109C-39.129,-4.887 -38.761,-4.259 -37.836,-4.554C-37.281,-4.73 -35.678,-6.394 -35.107,-7.385C-34.816,-7.887 -34.747,-7.878 -33.512,-7.153C-32.578,-6.606 -32.129,-6.12 -31.893,-5.403C-31.6,-4.519 -31.641,-4.284 -32.281,-3.192C-32.676,-2.52 -33.478,-1.549 -34.063,-1.034C-34.648,-0.521 -35.143,0.161 -35.16,0.48C-35.295,2.864 -35.888,9.847 -35.98,10.13C-36.15,10.651 -36.756,10.557 -37.828,9.847" style="fill:rgb(255,255,250);fill-rule:nonzero;"/>
        </g>
    </g>
    <g id="Calque-41" serif:id="Calque 4">
        <g transform="matrix(-1,0,0,1,15.274,-13.156)">
            <rect x="6.799" y="21.166" width="1.313" height="9.407" style="fill:rgb(255,255,250);"/>
        </g>
        <g transform="matrix(1,0,0,1,11.8103,17.2446)">
            <path d="M0,-6.124C0.018,-5.965 0.031,-5.786 0.04,-5.587C0.049,-5.387 0.054,-5.221 0.054,-5.088L0.094,-5.088C0.173,-5.257 0.281,-5.414 0.42,-5.56C0.556,-5.707 0.714,-5.834 0.892,-5.945C1.068,-6.056 1.263,-6.143 1.476,-6.204C1.687,-6.267 1.909,-6.297 2.139,-6.297C2.547,-6.297 2.896,-6.228 3.19,-6.092C3.482,-5.953 3.726,-5.771 3.921,-5.54C4.115,-5.309 4.258,-5.04 4.351,-4.729C4.443,-4.42 4.491,-4.087 4.491,-3.733L4.491,0.173L3.241,0.173L3.241,-3.321C3.241,-3.578 3.222,-3.821 3.184,-4.053C3.143,-4.282 3.069,-4.486 2.963,-4.664C2.857,-4.84 2.711,-4.982 2.524,-5.088C2.339,-5.194 2.101,-5.248 1.809,-5.248C1.311,-5.248 0.906,-5.06 0.592,-4.684C0.276,-4.307 0.12,-3.804 0.12,-3.175L0.12,0.173L-1.129,0.173L-1.129,-4.769C-1.129,-4.937 -1.133,-5.155 -1.142,-5.42C-1.15,-5.686 -1.164,-5.921 -1.183,-6.124L0,-6.124Z" style="fill:rgb(255,255,250);fill-rule:nonzero;"/>
        </g>
        <g transform="matrix(1,0,0,1,21.8151,15.8233)">
            <path d="M0,-3.109C-0.143,-3.339 -0.341,-3.527 -0.598,-3.673C-0.855,-3.82 -1.144,-3.893 -1.462,-3.893C-1.604,-3.893 -1.745,-3.877 -1.888,-3.847C-2.028,-3.816 -2.155,-3.767 -2.266,-3.701C-2.376,-3.635 -2.465,-3.55 -2.532,-3.448C-2.598,-3.346 -2.631,-3.219 -2.631,-3.069C-2.631,-2.804 -2.513,-2.607 -2.271,-2.478C-2.033,-2.35 -1.674,-2.233 -1.196,-2.125C-0.895,-2.055 -0.616,-1.971 -0.358,-1.874C-0.103,-1.776 0.121,-1.654 0.312,-1.508C0.502,-1.362 0.649,-1.187 0.758,-0.984C0.863,-0.779 0.917,-0.541 0.917,-0.266C0.917,0.106 0.847,0.421 0.703,0.677C0.562,0.934 0.374,1.144 0.139,1.308C-0.096,1.472 -0.364,1.59 -0.665,1.66C-0.966,1.731 -1.275,1.767 -1.596,1.767C-2.073,1.767 -2.54,1.674 -2.997,1.488C-3.452,1.302 -3.831,1.018 -4.132,0.637L-3.242,-0.12C-3.074,0.128 -2.841,0.337 -2.544,0.504C-2.248,0.673 -1.922,0.757 -1.568,0.757C-1.409,0.757 -1.256,0.742 -1.11,0.711C-0.964,0.679 -0.831,0.629 -0.71,0.558C-0.592,0.487 -0.497,0.394 -0.425,0.278C-0.354,0.163 -0.319,0.017 -0.319,-0.16C-0.319,-0.452 -0.459,-0.669 -0.737,-0.811C-1.018,-0.952 -1.427,-1.086 -1.967,-1.209C-2.179,-1.263 -2.395,-1.326 -2.611,-1.402C-2.827,-1.478 -3.025,-1.582 -3.202,-1.714C-3.38,-1.846 -3.524,-2.013 -3.634,-2.212C-3.744,-2.412 -3.801,-2.657 -3.801,-2.949C-3.801,-3.287 -3.731,-3.576 -3.595,-3.82C-3.457,-4.063 -3.277,-4.263 -3.056,-4.417C-2.834,-4.573 -2.582,-4.688 -2.299,-4.763C-2.015,-4.839 -1.723,-4.876 -1.422,-4.876C-0.971,-4.876 -0.533,-4.787 -0.114,-4.61C0.308,-4.433 0.632,-4.176 0.863,-3.84L0,-3.109Z" style="fill:rgb(255,255,250);fill-rule:nonzero;"/>
        </g>
        <g transform="matrix(1,0,0,1,27.7409,14.6921)">
            <path d="M0,-2.549L-1.674,-2.549L-1.674,0.723C-1.674,1.103 -1.604,1.374 -1.462,1.537C-1.32,1.701 -1.095,1.783 -0.785,1.783C-0.669,1.783 -0.545,1.77 -0.413,1.746C-0.279,1.721 -0.16,1.685 -0.055,1.636L-0.014,2.659C-0.165,2.712 -0.331,2.753 -0.513,2.784C-0.694,2.816 -0.883,2.831 -1.077,2.831C-1.669,2.831 -2.124,2.668 -2.438,2.34C-2.753,2.013 -2.911,1.521 -2.911,0.866L-2.911,-2.549L-4.119,-2.549L-4.119,-3.571L-2.911,-3.571L-2.911,-5.38L-1.674,-5.38L-1.674,-3.571L0,-3.571L0,-2.549Z" style="fill:rgb(255,255,250);fill-rule:nonzero;"/>
        </g>
        <g transform="matrix(1,0,0,1,32.8415,14.1095)">
            <path d="M0,0.305C-0.309,0.305 -0.631,0.318 -0.962,0.346C-1.295,0.372 -1.596,0.425 -1.866,0.505C-2.136,0.584 -2.359,0.703 -2.537,0.863C-2.714,1.023 -2.803,1.235 -2.803,1.501C-2.803,1.687 -2.766,1.842 -2.69,1.966C-2.614,2.09 -2.515,2.192 -2.392,2.272C-2.268,2.351 -2.13,2.408 -1.979,2.437C-1.829,2.469 -1.674,2.484 -1.513,2.484C-0.93,2.484 -0.48,2.309 -0.166,1.96C0.149,1.609 0.307,1.169 0.307,0.638L0.307,0.305L0,0.305ZM0.307,-0.771C0.307,-1.24 0.164,-1.588 -0.119,-1.814C-0.401,-2.04 -0.779,-2.152 -1.248,-2.152C-1.602,-2.152 -1.937,-2.084 -2.251,-1.946C-2.566,-1.81 -2.829,-1.634 -3.043,-1.422L-3.706,-2.219C-3.397,-2.511 -3.019,-2.741 -2.571,-2.91C-2.123,-3.078 -1.644,-3.162 -1.129,-3.162C-0.677,-3.162 -0.285,-3.097 0.047,-2.97C0.379,-2.841 0.65,-2.667 0.864,-2.444C1.077,-2.224 1.235,-1.962 1.343,-1.661C1.449,-1.36 1.501,-1.036 1.501,-0.69L1.501,2.059C1.501,2.272 1.509,2.496 1.521,2.729C1.536,2.965 1.56,3.158 1.594,3.308L0.465,3.308C0.394,3.007 0.359,2.705 0.359,2.404L0.318,2.404C0.089,2.742 -0.2,3.002 -0.552,3.188C-0.901,3.374 -1.314,3.467 -1.793,3.467C-2.041,3.467 -2.301,3.434 -2.571,3.367C-2.842,3.301 -3.087,3.193 -3.309,3.042C-3.529,2.891 -3.713,2.693 -3.859,2.444C-4.005,2.197 -4.078,1.89 -4.078,1.527C-4.078,1.049 -3.95,0.671 -3.693,0.392C-3.436,0.112 -3.1,-0.1 -2.684,-0.246C-2.268,-0.392 -1.798,-0.487 -1.275,-0.531C-0.753,-0.576 -0.225,-0.598 0.307,-0.598L0.307,-0.771Z" style="fill:rgb(255,255,250);fill-rule:nonzero;"/>
        </g>
        <g transform="matrix(-1,0,0,1,73.662,-13.166)">
            <rect x="36.025" y="21.166" width="1.249" height="9.417" style="fill:rgb(255,255,250);"/>
        </g>
        <g transform="matrix(-1,0,0,1,80.388,-13.166)">
            <rect x="39.388" y="21.166" width="1.249" height="9.417" style="fill:rgb(255,255,250);"/>
        </g>
        <g transform="matrix(1,0,0,1,12.5993,29.9103)">
            <path d="M0,-6.299L1.422,-1.489L1.449,-1.489L2.95,-6.299L4.265,-6.299L5.793,-1.489L5.819,-1.489L7.241,-6.299L8.557,-6.299L6.471,0L5.168,0L3.613,-4.732L3.588,-4.732L2.047,0L0.744,0L-1.355,-6.299L0,-6.299Z" style="fill:rgb(255,255,250);fill-rule:nonzero;"/>
        </g>
        <g transform="matrix(1,0,0,1,0.363,11.857)">
            <path d="M23.316,18.053L22.068,18.053L22.068,11.754L23.316,11.754L23.316,18.053ZM23.516,9.483C23.516,9.713 23.435,9.903 23.272,10.055C23.108,10.205 22.914,10.281 22.685,10.281C22.459,10.281 22.264,10.203 22.105,10.047C21.947,9.893 21.869,9.705 21.869,9.483C21.869,9.253 21.947,9.06 22.105,8.906C22.264,8.749 22.459,8.673 22.685,8.673C22.914,8.673 23.108,8.749 23.272,8.906C23.435,9.06 23.516,9.253 23.516,9.483" style="fill:rgb(255,255,250);fill-rule:nonzero;"/>
        </g>
        <g transform="matrix(1,0,0,1,29.0202,27.1858)">
            <path d="M0,-2.551L-1.674,-2.551L-1.674,0.721C-1.674,1.1 -1.604,1.372 -1.461,1.535C-1.32,1.699 -1.094,1.781 -0.785,1.781C-0.669,1.781 -0.544,1.768 -0.412,1.745C-0.278,1.72 -0.16,1.683 -0.053,1.635L-0.013,2.658C-0.163,2.711 -0.33,2.752 -0.512,2.783C-0.694,2.815 -0.882,2.83 -1.076,2.83C-1.669,2.83 -2.122,2.666 -2.438,2.339C-2.752,2.011 -2.91,1.519 -2.91,0.864L-2.91,-2.551L-4.119,-2.551L-4.119,-3.574L-2.91,-3.574L-2.91,-5.381L-1.674,-5.381L-1.674,-3.574L0,-3.574L0,-2.551Z" style="fill:rgb(255,255,250);fill-rule:nonzero;"/>
        </g>
        <g transform="matrix(1,0,0,1,31.6237,25.8344)">
            <path d="M0,-1.266C0.152,-1.576 0.408,-1.841 0.771,-2.063C1.134,-2.285 1.542,-2.395 1.994,-2.395C2.401,-2.395 2.751,-2.327 3.043,-2.189C3.335,-2.052 3.579,-1.869 3.773,-1.638C3.969,-1.408 4.112,-1.137 4.206,-0.827C4.298,-0.517 4.345,-0.185 4.345,0.169L4.345,4.076L3.096,4.076L3.096,0.586C3.096,0.329 3.075,0.085 3.036,-0.147C2.997,-0.377 2.924,-0.581 2.817,-0.758C2.711,-0.937 2.567,-1.079 2.386,-1.186C2.203,-1.291 1.966,-1.346 1.674,-1.346C1.179,-1.346 0.771,-1.157 0.452,-0.779C0.133,-0.402 -0.025,0.101 -0.025,0.732L-0.025,4.076L-1.275,4.076L-1.275,-5.342L-0.025,-5.342L-0.025,-1.266L0,-1.266Z" style="fill:rgb(255,255,250);fill-rule:nonzero;"/>
        </g>
    </g>
</svg>
