<?xml version="1.0" encoding="UTF-8" standalone="no"?><!DOCTYPE svg PUBLIC "-//W3C//DTD SVG 1.1//EN" "http://www.w3.org/Graphics/SVG/1.1/DTD/svg11.dtd"><svg width="160" height="40" viewBox="0 0 160 40" version="1.1" xmlns="http://www.w3.org/2000/svg" xmlns:xlink="http://www.w3.org/1999/xlink" xml:space="preserve" xmlns:serif="http://www.serif.com/" style="fill-rule:evenodd;clip-rule:evenodd;stroke-linejoin:round;stroke-miterlimit:2;"><g><path d="M22.1,0l622.887,0" style="fill:none;fill-rule:nonzero;"/><path d="M644.583,166.667l-622.495,-0c-12.188,-0 -22.088,-9.921 -22.088,-22.113l0,-122.437c0,-12.196 9.9,-22.117 22.088,-22.117l622.495,-0c12.18,-0 22.084,9.921 22.084,22.117l-0,122.437c-0,12.192 -9.904,22.113 -22.084,22.113Z" style="fill:#9e9d9b;fill-rule:nonzero;"/><path d="M22.1,3.746c-10.121,-0 -18.358,8.233 -18.358,18.358l-0,122.35c-0,10.125 8.237,18.358 18.358,18.358l622.887,0c10.121,0 18.351,-8.233 18.351,-18.358l-0,-122.35c-0,-10.125 -8.23,-18.358 -18.351,-18.358l-622.887,-0Z" style="fill-rule:nonzero;"/><path d="M509.729,96.942c4.217,-1.613 6.329,-8.546 3.783,-12.425c-1.033,-1.584 -2.57,-2.879 -3.399,-2.879c-4.663,-0 -9.605,11.062 -6.567,14.729c1.633,1.962 2.346,2.029 6.183,0.575Zm-2.95,22.154c-5.629,-0.971 -13.796,-7.296 -18.716,-14.479c-3.517,-5.129 -3.913,-6.542 -3.83,-13.48c0.109,-9.024 2.921,-19.524 6.43,-23.983c2.783,-3.537 11.254,-7.787 15.529,-7.787c2.596,-0 8.604,2.208 17.791,6.541c7.925,3.734 9.304,6.054 11.05,18.596l1.284,9.259l-2.884,10.887c-2.341,5.013 -6.85,8.454 -8.291,9.808c-3.404,3.2 -12.871,5.588 -18.363,4.638Zm47.729,0.983c-2.537,-1.471 -7.491,-6.992 -9.679,-10.791c-0.787,-1.346 -1.446,-5.005 -1.471,-8.105c-0.062,-8.304 3.425,-13.521 5.229,-7.841c1.713,5.396 8.063,7.816 11.051,4.212c2.412,-2.908 -1.625,-9.704 -11.626,-19.567c-8.987,-8.875 -9.383,-9.479 -9.383,-14.587c0,-7.921 2.267,-11.213 10.408,-15.096c6.755,-3.237 7.346,-3.321 12.113,-1.783c6.496,2.079 14.121,9.421 13.596,13.096c-0.321,2.283 -1.067,2.683 -5.058,2.683c-2.584,-0 -5.351,0.425 -6.155,0.946c-2.4,1.55 -1.67,5.091 1.471,7.146c2.879,1.891 2.921,1.879 2.921,-1.405c0,-3.224 0.3,-3.391 10.254,-5.595l10.25,-2.267l0.846,-9.221c1.404,-15.517 5.883,-18.579 14.742,-10.071c2.708,2.605 5.004,5.375 5.1,6.155c0.1,0.779 0.233,2.208 0.304,3.179c0.092,1.45 1.875,1.683 10.216,1.35c9.734,-0.392 10.242,-0.284 13.759,2.933c2.504,2.288 3.75,4.592 3.954,7.35c0.254,3.392 -0.3,4.425 -3.604,6.688c-2.15,1.466 -9.134,4.333 -15.525,6.375c-9.179,2.929 -11.629,4.162 -11.629,5.87c-0,1.184 0.608,7.434 1.333,13.871c1.512,13.267 0.554,17.604 -4.392,19.859c-4.354,1.983 -5.512,1.683 -9.612,-2.563c-4.809,-4.958 -6.3,-10.192 -5.338,-18.8c0.892,-7.962 0.375,-8.567 -6.921,-7.979l-5.187,0.412l1.7,4.863c1.092,3.154 1.471,7.171 1.062,11.329c-0.529,5.446 -1.233,6.958 -4.508,9.775c-9.712,8.354 -15.279,10.442 -20.221,7.579Zm-118.716,16.263c-2.113,-1.404 -4.946,-4.675 -6.304,-7.25c-2.63,-4.98 -7.75,-10.417 -12.963,-13.775c-3.608,-2.304 -5.579,-9.238 -3.392,-11.867c0.73,-0.888 3.821,-2.275 6.871,-3.096c3.046,-0.817 6.05,-1.95 6.663,-2.5c0.625,-0.554 1.187,-4.562 1.254,-8.908c0.412,-26.579 0.629,-27.233 8.767,-27.233c9.645,-0 16.17,11.529 13,22.958c-2.255,8.104 -1.813,9.854 2.516,9.829c6.608,-0.033 6.967,-0.783 7.263,-15.358c0.458,-21.984 5.271,-28.98 16.325,-23.709c7.012,3.346 8.046,12.413 3.25,28.542c-1.571,5.279 1.541,27.129 4.796,33.725c1.841,3.708 -0.125,8.929 -3.546,9.425c-1.559,0.221 -4.117,-0.867 -6.221,-2.642c-1.975,-1.654 -3.533,-2.583 -4.509,-3.008c-0.462,-0.204 -2.379,-2.108 -4.17,-4.687c-3.109,-4.484 -6.659,-6.009 -8.196,-3.513c-0.404,0.637 -3.125,1.771 -6.046,2.508c-5.108,1.288 -5.283,1.475 -4.642,4.979c1.93,10.396 1.95,14.546 0.088,16.405c-2.542,2.546 -6.217,2.266 -10.804,-0.825Z" style="fill:#fff;fill-rule:nonzero;"/><path d="M398.096,77.392c3.891,-7.784 3.379,-12.784 -1.392,-13.467c-2.117,-0.304 -3.042,0.608 -4.812,4.738c-3.304,7.708 -4.088,12.449 -2.4,14.487c2.516,3.029 5.066,1.312 8.604,-5.758Zm-11.617,28.329c-10.916,-5.917 -14.629,-11.325 -15.508,-22.638c-0.696,-8.97 3.125,-24.904 7.275,-30.358c1.629,-2.129 2.541,-3.967 2.962,-5.171c0.234,-0.679 2.334,-2.908 5.192,-4.875c6.662,-4.583 12.842,-4.779 18.983,-0.608c8.634,5.85 12.021,9.421 12.38,35.929c0.133,10.242 -2.251,12.529 -5.288,17.708c-1.825,3.092 -4.483,6.075 -5.908,6.621c-1.434,0.542 -3.255,1.758 -4.034,2.708c-1.729,2.08 -12.608,2.546 -16.054,0.684Zm-62.887,10.108c-6.254,-3.254 -7.413,-5.625 -5.825,-11.921c3.508,-13.958 4.191,-30.541 1.841,-44.741c-0.75,-4.563 -0.529,-5.379 1.963,-7.296c1.546,-1.188 3.937,-2.171 5.304,-2.188c3.321,-0.037 10.979,8.421 14.304,15.792c4.859,10.775 6.625,13.854 7.667,13.375c0.571,-0.267 1.171,-8.404 1.333,-18.079c0.275,-15.508 0.613,-18.175 2.896,-22.554c1.429,-2.734 3.321,-4.967 4.213,-4.967c0.887,-0 3.079,2.242 4.85,4.979c1.774,2.738 3.708,5.329 4.299,5.75c0.592,0.421 0.884,6.488 0.634,13.475c-0.246,6.992 -0.371,17.192 -0.275,22.667c0.554,32.9 0.375,34.779 -3.567,36.271c-3.737,1.42 -9.629,-1.463 -16.729,-8.171c-3.392,-3.204 -6.617,-5.834 -7.188,-5.834c-0.566,0 -1.975,3.021 -3.125,6.738c-3.379,10.825 -4.024,11.175 -12.595,6.704Zm-40.279,2.484c-5.442,-2.367 -12.926,-11.584 -14.596,-17.988c-1.779,-6.771 -1.671,-34.746 0.162,-42.008c0.713,-2.834 1.896,-5.142 2.642,-5.142c2.242,-0 9.933,5.725 11.446,8.517c0.833,1.537 1.508,8.341 1.641,16.541c0.2,12.013 0.525,14.1 2.317,15.109c1.596,0.891 2.475,0.654 3.667,-0.98c0.866,-1.179 1.575,-2.966 1.591,-3.966c0.005,-1.004 1.317,-5.938 2.925,-10.959c1.6,-5.012 2.967,-11.608 3.021,-14.641c0.254,-11.671 2.825,-14.279 8.967,-9.113c7.179,6.042 7.554,19.671 1.279,46.354c-2.5,10.663 -5.004,14.309 -12.35,18.03c-4.492,2.27 -7.912,2.337 -12.712,0.246Zm-42.834,8.383c-2.237,-1.479 -5.262,-5.204 -6.908,-8.488c-2.663,-5.341 -2.896,-7.008 -2.613,-18.612l0.317,-12.767l-6.712,-5.575c-3.884,-3.733 -6.317,-5.796 -7.396,-8.441c-0.1,-0.242 -1.05,-5.405 -2.346,-11.438c-1.292,-6.033 -2.338,-13.758 -2.338,-17.175c0,-5.35 0.404,-6.479 2.963,-8.154c4.633,-3.033 9.704,-1 14.212,5.708c2.996,4.458 3.871,7.2 4.534,14.296c0.871,9.254 2.404,11.871 6.258,10.642c2.308,-0.73 8.992,-7.667 11.367,-11.796c1.212,-2.092 1.5,-2.05 6.65,0.971c3.887,2.279 5.762,4.3 6.746,7.287c1.22,3.684 1.049,4.663 -1.621,9.217c-1.642,2.796 -4.984,6.841 -7.421,8.987c-2.442,2.142 -4.5,4.98 -4.575,6.309c-0.558,9.933 -3.029,39.029 -3.417,40.208c-0.708,2.171 -3.229,1.783 -7.7,-1.179Z" style="fill:#fff;fill-rule:nonzero;"/><rect x="36.487" y="39.283" width="5.471" height="39.196" style="fill:#fff;fill-rule:nonzero;"/><path d="M55.854,52.242c0.075,0.662 0.134,1.408 0.167,2.237c0.037,0.833 0.058,1.525 0.058,2.079l0.167,0c0.329,-0.704 0.783,-1.358 1.358,-1.962c0.567,-0.613 1.225,-1.146 1.967,-1.609c0.737,-0.462 1.546,-0.825 2.433,-1.079c0.884,-0.262 1.804,-0.387 2.763,-0.387c1.7,-0 3.158,0.287 4.383,0.854c1.217,0.579 2.229,1.338 3.042,2.3c0.812,0.963 1.404,2.087 1.791,3.379c0.388,1.288 0.588,2.675 0.588,4.15l-0,16.275l-5.209,0l0,-14.558c0,-1.071 -0.083,-2.084 -0.241,-3.05c-0.171,-0.954 -0.475,-1.804 -0.921,-2.546c-0.437,-0.733 -1.05,-1.325 -1.825,-1.767c-0.775,-0.441 -1.767,-0.666 -2.983,-0.666c-2.075,-0 -3.759,0.783 -5.071,2.35c-1.313,1.57 -1.967,3.666 -1.967,6.287l0,13.95l-5.204,0l0,-20.592c0,-0.699 -0.017,-1.608 -0.05,-2.712c-0.037,-1.108 -0.096,-2.088 -0.171,-2.933l4.925,-0Z" style="fill:#fff;fill-rule:nonzero;"/><path d="M97.542,58.883c-0.592,-0.962 -1.421,-1.746 -2.488,-2.354c-1.075,-0.612 -2.275,-0.912 -3.604,-0.912c-0.588,-0 -1.179,0.066 -1.775,0.191c-0.583,0.129 -1.113,0.334 -1.571,0.609c-0.462,0.275 -0.833,0.629 -1.112,1.05c-0.271,0.425 -0.413,0.954 -0.413,1.583c0,1.1 0.492,1.925 1.5,2.463c0.992,0.533 2.488,1.02 4.479,1.47c1.259,0.292 2.417,0.642 3.492,1.046c1.067,0.404 1.996,0.917 2.796,1.525c0.787,0.608 1.404,1.338 1.854,2.183c0.438,0.851 0.662,1.846 0.662,2.992c0,1.55 -0.291,2.863 -0.891,3.929c-0.588,1.071 -1.371,1.946 -2.35,2.629c-0.979,0.684 -2.096,1.175 -3.35,1.467c-1.254,0.296 -2.542,0.446 -3.879,0.446c-1.988,-0 -3.934,-0.387 -5.838,-1.167c-1.896,-0.771 -3.475,-1.954 -4.729,-3.541l3.708,-3.154c0.7,1.033 1.671,1.904 2.909,2.6c1.233,0.704 2.591,1.054 4.066,1.054c0.663,-0 1.3,-0.063 1.909,-0.192c0.608,-0.133 1.162,-0.342 1.666,-0.638c0.492,-0.295 0.888,-0.683 1.188,-1.166c0.3,-0.479 0.441,-1.088 0.441,-1.825c0,-1.217 -0.583,-2.121 -1.741,-2.713c-1.167,-0.587 -2.875,-1.145 -5.125,-1.658c-0.883,-0.225 -1.779,-0.487 -2.684,-0.804c-0.899,-0.317 -1.724,-0.75 -2.462,-1.304c-0.742,-0.55 -1.342,-1.242 -1.8,-2.071c-0.458,-0.833 -0.696,-1.854 -0.696,-3.071c0,-1.408 0.292,-2.612 0.859,-3.633c0.574,-1.009 1.324,-1.842 2.249,-2.484c0.921,-0.65 1.971,-1.129 3.151,-1.441c1.187,-0.321 2.404,-0.471 3.654,-0.471c1.879,-0 3.704,0.371 5.45,1.108c1.758,0.738 3.108,1.804 4.071,3.208l-3.596,3.046Z" style="fill:#fff;fill-rule:nonzero;"/><path d="M122.233,56.504l-6.975,0l0,13.629c0,1.584 0.292,2.713 0.884,3.396c0.591,0.679 1.529,1.021 2.821,1.021c0.483,0 1,-0.054 1.55,-0.154c0.558,-0.1 1.054,-0.254 1.491,-0.458l0.171,4.266c-0.629,0.221 -1.321,0.392 -2.079,0.521c-0.754,0.133 -1.542,0.192 -2.35,0.192c-2.467,-0 -4.363,-0.679 -5.675,-2.042c-1.308,-1.363 -1.967,-3.417 -1.967,-6.146l0,-14.225l-5.033,0l-0,-4.262l5.033,-0l0,-7.534l5.154,0l0,7.534l6.975,-0l0,4.262Z" style="fill:#fff;fill-rule:nonzero;"/><path d="M143.488,65.967c-1.288,-0 -2.63,0.054 -4.009,0.17c-1.387,0.109 -2.642,0.33 -3.771,0.663c-1.121,0.329 -2.054,0.825 -2.795,1.492c-0.734,0.666 -1.105,1.55 -1.105,2.658c0,0.775 0.154,1.421 0.467,1.938c0.317,0.516 0.733,0.941 1.246,1.274c0.516,0.33 1.091,0.567 1.721,0.688c0.62,0.133 1.271,0.196 1.941,0.196c2.429,-0 4.3,-0.729 5.613,-2.184c1.312,-1.462 1.967,-3.295 1.967,-5.508l-0,-1.387l-1.275,-0Zm1.275,-4.484c-0,-1.954 -0.592,-3.404 -1.775,-4.346c-1.176,-0.941 -2.75,-1.408 -4.701,-1.408c-1.475,0 -2.87,0.284 -4.179,0.858c-1.316,0.567 -2.412,1.3 -3.3,2.184l-2.766,-3.321c1.287,-1.217 2.866,-2.175 4.729,-2.879c1.871,-0.7 3.866,-1.05 6.012,-1.05c1.884,-0 3.513,0.271 4.896,0.8c1.383,0.537 2.517,1.262 3.408,2.192c0.888,0.916 1.546,2.008 1.992,3.262c0.446,1.254 0.663,2.604 0.663,4.046l-0,11.454c-0,0.887 0.029,1.821 0.083,2.792c0.062,0.983 0.158,1.787 0.3,2.412l-4.704,0c-0.296,-1.254 -0.438,-2.512 -0.438,-3.767l-0.17,0c-0.959,1.409 -2.163,2.492 -3.626,3.267c-1.458,0.775 -3.179,1.163 -5.17,1.163c-1.034,-0 -2.117,-0.138 -3.246,-0.417c-1.125,-0.275 -2.146,-0.725 -3.071,-1.354c-0.921,-0.629 -1.683,-1.454 -2.296,-2.492c-0.604,-1.029 -0.912,-2.308 -0.912,-3.821c-0,-1.991 0.533,-3.566 1.604,-4.729c1.075,-1.167 2.475,-2.05 4.208,-2.658c1.733,-0.608 3.692,-1.004 5.867,-1.188c2.179,-0.187 4.379,-0.279 6.592,-0.279l-0,-0.721Z" style="fill:#fff;fill-rule:nonzero;"/><rect x="158.263" y="39.242" width="5.204" height="39.237" style="fill:#fff;fill-rule:nonzero;"/><rect x="172.275" y="39.242" width="5.204" height="39.237" style="fill:#fff;fill-rule:nonzero;"/><path d="M59.142,104.288l5.925,20.037l0.116,0l6.255,-20.037l5.474,-0l6.367,20.037l0.113,0l5.925,-20.037l5.479,-0l-8.692,26.245l-5.429,0l-6.475,-19.716l-0.108,-0l-6.421,19.716l-5.425,0l-8.75,-26.245l5.646,-0Z" style="fill:#fff;fill-rule:nonzero;"/><path d="M105.308,130.533l-5.2,0l0,-26.245l5.2,-0l0,26.245Zm0.834,-35.712c-0,0.962 -0.338,1.75 -1.013,2.387c-0.687,0.625 -1.496,0.938 -2.45,0.938c-0.942,-0 -1.754,-0.325 -2.412,-0.971c-0.663,-0.646 -0.988,-1.429 -0.988,-2.354c0,-0.954 0.325,-1.763 0.988,-2.404c0.658,-0.65 1.47,-0.967 2.412,-0.967c0.954,-0 1.763,0.317 2.45,0.967c0.675,0.641 1.013,1.45 1.013,2.404Z" style="fill:#fff;fill-rule:nonzero;"/><path d="M127.562,108.55l-6.975,0l0,13.637c0,1.58 0.296,2.709 0.888,3.388c0.588,0.683 1.533,1.025 2.817,1.025c0.483,-0 1.004,-0.05 1.554,-0.15c0.558,-0.104 1.05,-0.254 1.5,-0.458l0.167,4.262c-0.63,0.221 -1.326,0.392 -2.08,0.521c-0.762,0.133 -1.546,0.196 -2.354,0.196c-2.471,-0 -4.358,-0.683 -5.671,-2.046c-1.312,-1.363 -1.971,-3.412 -1.971,-6.146l0,-14.229l-5.037,0l0,-4.262l5.037,-0l0,-7.53l5.15,0l0,7.53l6.975,-0l0,4.262Z" style="fill:#fff;fill-rule:nonzero;"/><path d="M138.413,108.275c0.633,-1.292 1.699,-2.396 3.212,-3.321c1.513,-0.925 3.213,-1.383 5.096,-1.383c1.696,-0 3.154,0.283 4.371,0.858c1.216,0.571 2.233,1.334 3.041,2.296c0.817,0.958 1.413,2.087 1.804,3.379c0.384,1.292 0.58,2.675 0.58,4.146l-0,16.283l-5.209,0l0,-14.546c0,-1.066 -0.083,-2.087 -0.245,-3.05c-0.163,-0.962 -0.467,-1.812 -0.913,-2.545c-0.442,-0.746 -1.042,-1.342 -1.796,-1.784c-0.762,-0.441 -1.75,-0.666 -2.966,-0.666c-2.067,-0 -3.763,0.787 -5.092,2.362c-1.329,1.571 -1.992,3.667 -1.992,6.296l0,13.933l-5.208,0l-0,-39.241l5.208,-0l0,16.983l0.109,0Z" style="fill:#fff;fill-rule:nonzero;"/></g></svg>