<?xml version="1.0" encoding="UTF-8" standalone="no"?>
<svg
   xmlns:dc="http://purl.org/dc/elements/1.1/"
   xmlns:cc="http://creativecommons.org/ns#"
   xmlns:rdf="http://www.w3.org/1999/02/22-rdf-syntax-ns#"
   xmlns:svg="http://www.w3.org/2000/svg"
   xmlns="http://www.w3.org/2000/svg"
   xmlns:sodipodi="http://sodipodi.sourceforge.net/DTD/sodipodi-0.dtd"
   xmlns:inkscape="http://www.inkscape.org/namespaces/inkscape"
   version="1.1"
   id="svg96"
   xml:space="preserve"
   width="160"
   height="40"
   viewBox="0 0 160 40"
   sodipodi:docname="install-with-yunohost**.svg"
   inkscape:version="1.0.1 (c497b03c, 2020-09-10)"
   inkscape:export-filename="/Users/macmini/Nextcloud Eric/YunoHost_Badge/install-with-yunohost**.png"
   inkscape:export-xdpi="96.199997"
   inkscape:export-ydpi="96.199997"><metadata
     id="metadata102"><rdf:RDF><cc:Work
         rdf:about=""><dc:format>image/svg+xml</dc:format><dc:type
           rdf:resource="http://purl.org/dc/dcmitype/StillImage" /><dc:title></dc:title></cc:Work></rdf:RDF></metadata><defs
     id="defs100" /><sodipodi:namedview
     pagecolor="#ffffff"
     bordercolor="#666666"
     borderopacity="1"
     objecttolerance="10"
     gridtolerance="10"
     guidetolerance="10"
     inkscape:pageopacity="0"
     inkscape:pageshadow="2"
     inkscape:window-width="1920"
     inkscape:window-height="984"
     id="namedview98"
     showgrid="false"
     inkscape:zoom="5.7890626"
     inkscape:cx="51.994601"
     inkscape:cy="37.031038"
     inkscape:window-x="0"
     inkscape:window-y="23"
     inkscape:window-maximized="0"
     inkscape:current-layer="g104" /><g
     id="g104"
     inkscape:groupmode="layer"
     inkscape:label="ink_ext_XXXXXX"
     transform="matrix(1.3333333,0,0,-1.3333333,0,53.333333)"><g
       id="g106"
       transform="matrix(0.075,0,0,0.075,0,9.9999992)"><path
         d="M 53.0469,400 H 1547.97"
         style="fill:#a2a39e;fill-opacity:1;fill-rule:nonzero;stroke:none"
         id="path108" /><path
         d="M 1547,0 H 53.0195 C 23.7695,0 0,23.8164 0,53.0742 V 346.922 C 0,376.191 23.7695,400 53.0195,400 H 1547 c 29.23,0 53,-23.809 53,-53.078 V 53.0742 C 1600,23.8164 1576.23,0 1547,0"
         style="fill:#8f8f8c;fill-opacity:1;fill-rule:nonzero;stroke:none"
         id="path110" /><path
         d="M 53.0469,391.016 C 28.75,391.016 8.98438,371.254 8.98438,346.957 V 53.3125 C 8.98438,29.0156 28.75,9.25781 53.0469,9.25781 H 1547.97 c 24.29,0 44.04,19.75779 44.04,44.05469 V 346.957 c 0,24.297 -19.75,44.059 -44.04,44.059 H 53.0469"
         style="fill:#09060b;fill-opacity:1;fill-rule:nonzero;stroke:none"
         id="path112" /><path
         d="m 1223.35,167.344 c 10.12,3.867 15.19,20.508 9.08,29.824 -2.48,3.793 -6.17,6.91 -8.16,6.91 -11.19,0 -23.05,-26.558 -15.76,-35.355 3.92,-4.707 5.63,-4.868 14.84,-1.379 z m -7.08,-53.172 c -13.51,2.332 -33.11,17.508 -44.92,34.754 -8.44,12.304 -9.39,15.703 -9.19,32.344 0.26,21.66 7.01,46.867 15.43,57.562 6.68,8.496 27.01,18.695 37.27,18.695 6.23,0 20.65,-5.304 42.7,-15.703 19.02,-8.957 22.33,-14.527 26.52,-44.629 l 3.09,-22.222 -6.92,-26.125 c -5.63,-12.032 -16.45,-20.293 -19.91,-23.543 -8.17,-7.676 -30.89,-13.41 -44.07,-11.133 z m 114.55,-2.356 c -6.09,3.528 -17.98,16.778 -23.23,25.899 -1.89,3.23 -3.47,12.012 -3.53,19.453 -0.15,19.922 8.22,32.449 12.55,18.816 4.11,-12.949 19.35,-18.757 26.52,-10.105 5.79,6.973 -3.9,23.281 -27.9,46.957 -21.57,21.301 -22.52,22.75 -22.52,35.008 0,19.011 5.45,26.906 24.98,36.226 16.21,7.77 17.63,7.973 29.07,4.289 15.59,-4.996 33.89,-22.617 32.63,-31.429 -0.77,-5.489 -2.56,-6.446 -12.14,-6.446 -6.2,0 -12.84,-1.019 -14.77,-2.265 -5.76,-3.727 -4.01,-12.227 3.53,-17.16 6.91,-4.536 7.01,-4.5 7.01,3.379 0,7.742 0.72,8.14 24.61,13.421 l 24.6,5.446 2.03,22.133 c 3.37,37.234 14.12,44.593 35.38,24.164 6.5,-6.243 12.01,-12.891 12.24,-14.762 0.24,-1.875 0.56,-5.305 0.73,-7.633 0.22,-3.48 4.5,-4.043 24.52,-3.242 23.36,0.937 24.58,0.68 33.02,-7.039 6.01,-5.496 9,-11.02 9.49,-17.645 0.61,-8.133 -0.72,-10.613 -8.65,-16.043 -5.16,-3.519 -21.92,-10.406 -37.26,-15.3 -22.03,-7.032 -27.91,-9.993 -27.91,-14.09 0,-2.848 1.46,-17.84 3.2,-33.289 3.63,-31.848 1.33,-42.258 -10.54,-47.668 -10.45,-4.754 -13.23,-4.036 -23.07,6.152 -11.54,11.902 -15.12,24.465 -12.81,45.117 2.14,19.11 0.9,20.563 -16.61,19.156 l -12.45,-0.988 4.08,-11.676 c 2.62,-7.566 3.53,-17.207 2.55,-27.183 -1.27,-13.078 -2.96,-16.699 -10.82,-23.469 -23.31,-20.051 -36.67,-25.059 -48.53,-18.184 z M 1045.9,72.7813 c -5.07,3.371 -11.87,11.2226 -15.13,17.4062 -6.31,11.9535 -18.6,25.0005 -31.102,33.0545 -8.66,5.528 -13.391,22.168 -8.145,28.488 1.747,2.125 9.167,5.458 16.487,7.418 7.31,1.965 14.52,4.692 15.99,6.008 1.5,1.328 2.85,10.949 3.01,21.375 0.99,63.797 1.51,65.36 21.04,65.36 23.15,0 38.81,-27.661 31.2,-55.094 -5.41,-19.453 -4.35,-23.652 6.04,-23.594 15.86,0.078 16.72,1.887 17.43,36.863 1.1,52.762 12.65,69.551 39.18,56.899 16.83,-8.027 19.31,-29.793 7.8,-68.496 -3.77,-12.68 3.7,-65.11 11.51,-80.942 4.42,-8.906 -0.3,-21.4332 -8.51,-22.6247 -3.74,-0.5273 -9.88,2.0782 -14.93,6.3357 -4.74,3.977 -8.48,6.203 -10.82,7.231 -1.11,0.484 -5.71,5.054 -10.01,11.25 -7.46,10.761 -15.98,14.414 -19.67,8.426 -0.97,-1.536 -7.5,-4.25 -14.51,-6.016 -12.26,-3.098 -12.68,-3.543 -11.14,-11.953 4.63,-24.9494 4.68,-34.9104 0.21,-39.3752 -6.1,-6.1055 -14.92,-5.4414 -25.93,1.9805 v 0"
         style="fill:#fffff8;fill-opacity:1;fill-rule:nonzero;stroke:none"
         id="path114" /><path
         d="m 955.43,214.262 c 9.343,18.687 8.117,30.679 -3.34,32.32 -5.078,0.727 -7.293,-1.453 -11.543,-11.367 -7.93,-18.5 -9.817,-29.883 -5.762,-34.766 6.035,-7.273 12.156,-3.16 20.645,13.813 z M 927.559,146.27 c -26.204,14.21 -35.118,27.187 -37.227,54.335 -1.672,21.536 7.5,59.77 17.461,72.856 3.918,5.117 6.102,9.523 7.109,12.418 0.567,1.625 5.606,6.973 12.461,11.695 15.996,11 30.821,11.473 45.559,1.465 20.723,-14.043 28.848,-22.613 29.708,-86.23 0.32,-24.586 -5.396,-30.075 -12.689,-42.504 -4.375,-7.422 -10.761,-14.582 -14.179,-15.891 -3.438,-1.301 -7.801,-4.219 -9.676,-6.504 -4.152,-4.988 -30.266,-6.101 -38.527,-1.64 z M 776.621,122.012 c -15.012,7.812 -17.781,13.508 -13.976,28.613 8.418,33.496 10.058,73.297 4.418,107.383 -1.797,10.945 -1.27,12.906 4.714,17.504 3.711,2.855 9.446,5.215 12.727,5.254 7.969,0.086 26.355,-20.207 34.336,-37.899 11.656,-25.863 15.894,-33.25 18.394,-32.101 1.371,0.64 2.817,20.168 3.204,43.382 0.656,37.223 1.464,43.629 6.945,54.133 3.43,6.563 7.969,11.918 10.105,11.918 2.141,0 7.395,-5.371 11.645,-11.945 4.265,-6.57 8.902,-12.785 10.32,-13.797 1.426,-1.016 2.117,-15.57 1.524,-32.344 -0.594,-16.781 -0.887,-41.254 -0.664,-54.402 1.328,-78.961 0.898,-83.465 -8.555,-87.047 -8.977,-3.406 -23.113,3.508 -40.156,19.609 -8.133,7.696 -15.879,14.004 -17.247,14.004 -1.359,0 -4.738,-7.257 -7.5,-16.172 -8.117,-25.976 -9.66,-26.816 -30.234,-16.093 z m -96.672,-5.957 c -13.054,5.683 -31.011,27.8 -35.027,43.175 -4.27,16.25 -4.004,83.387 0.391,100.821 1.707,6.789 4.55,12.336 6.335,12.336 5.383,0 23.848,-13.742 27.473,-20.438 2,-3.695 3.621,-20.019 3.945,-39.707 0.481,-28.824 1.258,-33.836 5.555,-36.258 3.828,-2.136 5.942,-1.57 8.801,2.344 2.082,2.832 3.777,7.133 3.816,9.524 0.012,2.418 3.164,14.253 7.024,26.296 3.84,12.036 7.121,27.864 7.258,35.149 0.601,28.004 6.777,34.266 21.511,21.863 17.239,-14.496 18.137,-47.211 3.074,-111.25 -6.003,-25.586 -12.007,-34.336 -29.636,-43.269 -10.781,-5.45 -18.992,-5.606 -30.52,-0.586 z M 577.156,95.9375 c -5.371,3.543 -12.636,12.4925 -16.582,20.3715 -6.394,12.812 -6.953,16.816 -6.265,44.668 l 0.757,30.64 -16.113,13.379 c -9.312,8.953 -15.152,13.91 -17.754,20.262 -0.23,0.578 -2.515,12.965 -5.625,27.445 -3.101,14.481 -5.613,33.024 -5.613,41.223 0,12.844 0.977,15.551 7.109,19.566 11.121,7.285 23.289,2.403 34.114,-13.703 7.195,-10.691 9.296,-17.277 10.879,-34.301 2.085,-22.211 5.769,-28.492 15.015,-25.547 5.551,1.758 21.582,18.403 27.285,28.313 2.91,5.023 3.606,4.926 15.957,-2.324 9.336,-5.469 13.828,-10.328 16.196,-17.492 2.925,-8.844 2.515,-11.196 -3.887,-22.122 -3.945,-6.714 -11.965,-16.421 -17.816,-21.57 -5.86,-5.137 -10.797,-11.953 -10.973,-15.144 -1.352,-23.84 -7.277,-93.6645 -8.203,-96.4965 -1.699,-5.2149 -7.754,-4.2774 -18.481,2.832"
         style="fill:#fffff8;fill-opacity:1;fill-rule:nonzero;stroke:none"
         id="path116" /><path
         d="M 100.707,211.656 H 87.5742 v 94.067 h 13.1328 v -94.067"
         style="fill:#fffff8;fill-opacity:1;fill-rule:nonzero;stroke:none"
         id="path118" /><path
         d="m 134.059,274.625 c 0.175,-1.59 0.312,-3.387 0.398,-5.371 0.09,-2.004 0.137,-3.656 0.137,-4.984 h 0.402 c 0.789,1.687 1.875,3.253 3.262,4.71 1.355,1.469 2.937,2.75 4.715,3.852 1.769,1.113 3.711,1.977 5.84,2.594 2.121,0.625 4.335,0.926 6.632,0.926 4.082,0 7.578,-0.688 10.516,-2.051 2.922,-1.387 5.352,-3.207 7.305,-5.516 1.945,-2.308 3.371,-5.008 4.297,-8.105 0.929,-3.09 1.406,-6.422 1.406,-9.965 v -39.059 h -12.5 v 34.942 c 0,2.562 -0.196,5 -0.574,7.312 -0.411,2.289 -1.145,4.336 -2.207,6.11 -1.055,1.761 -2.52,3.187 -4.387,4.25 -1.856,1.058 -4.238,1.593 -7.156,1.593 -4.981,0 -9.024,-1.879 -12.168,-5.636 -3.157,-3.778 -4.719,-8.805 -4.719,-15.094 V 211.656 H 122.77 v 49.418 c 0,1.68 -0.04,3.864 -0.129,6.516 -0.086,2.652 -0.223,5.004 -0.411,7.035 h 11.829"
         style="fill:#fffff8;fill-opacity:1;fill-rule:nonzero;stroke:none"
         id="path120" /><path
         d="m 234.105,258.688 c -1.425,2.304 -3.406,4.183 -5.976,5.644 -2.578,1.469 -5.457,2.195 -8.641,2.195 -1.418,0 -2.832,-0.16 -4.258,-0.464 -1.406,-0.309 -2.675,-0.797 -3.781,-1.458 -1.101,-0.66 -1.992,-1.507 -2.664,-2.527 -0.656,-1.019 -0.988,-2.289 -0.988,-3.793 0,-2.644 1.183,-4.625 3.594,-5.906 2.382,-1.281 5.976,-2.457 10.754,-3.531 3.015,-0.7 5.8,-1.543 8.378,-2.516 2.559,-0.973 4.793,-2.195 6.707,-3.656 1.895,-1.461 3.372,-3.211 4.454,-5.242 1.054,-2.043 1.593,-4.43 1.593,-7.18 0,-3.715 -0.703,-6.863 -2.14,-9.43 -1.414,-2.57 -3.289,-4.668 -5.645,-6.312 -2.344,-1.637 -5.027,-2.813 -8.035,-3.516 -3.008,-0.715 -6.105,-1.07 -9.309,-1.07 -4.773,0 -9.441,0.929 -14.011,2.793 -4.551,1.855 -8.34,4.691 -11.348,8.508 l 8.895,7.566 c 1.679,-2.477 4.015,-4.563 6.984,-6.238 2.957,-1.692 6.219,-2.532 9.754,-2.532 1.594,0 3.125,0.153 4.582,0.465 1.465,0.317 2.793,0.821 4.004,1.524 1.18,0.718 2.129,1.644 2.851,2.801 0.711,1.148 1.055,2.609 1.055,4.382 0,2.918 -1.398,5.09 -4.18,6.508 -2.804,1.414 -6.894,2.75 -12.296,3.985 -2.118,0.539 -4.278,1.171 -6.446,1.929 -2.156,0.754 -4.14,1.797 -5.906,3.125 -1.777,1.317 -3.223,2.985 -4.316,4.969 -1.106,2.008 -1.672,4.453 -1.672,7.375 0,3.379 0.695,6.273 2.062,8.715 1.375,2.422 3.172,4.426 5.391,5.969 2.215,1.554 4.734,2.703 7.566,3.46 2.844,0.762 5.762,1.122 8.77,1.122 4.511,0 8.886,-0.883 13.078,-2.657 4.219,-1.769 7.461,-4.336 9.773,-7.699 l -8.633,-7.308"
         style="fill:#fffff8;fill-opacity:1;fill-rule:nonzero;stroke:none"
         id="path122" /><path
         d="M 293.363,264.398 H 276.625 V 231.68 c 0,-3.797 0.703,-6.508 2.121,-8.145 1.414,-1.633 3.672,-2.449 6.766,-2.449 1.164,0 2.402,0.125 3.722,0.363 1.336,0.25 2.528,0.614 3.582,1.106 l 0.411,-10.242 c -1.512,-0.528 -3.172,-0.934 -4.989,-1.25 -1.816,-0.317 -3.703,-0.461 -5.644,-0.461 -5.918,0 -10.469,1.628 -13.614,4.906 -3.144,3.269 -4.726,8.191 -4.726,14.746 v 34.144 h -12.082 v 10.227 h 12.082 v 18.078 h 12.371 v -18.078 h 16.738 v -10.227"
         style="fill:#fffff8;fill-opacity:1;fill-rule:nonzero;stroke:none"
         id="path124" /><path
         d="m 344.371,241.684 c -3.086,0 -6.308,-0.129 -9.621,-0.407 -3.328,-0.265 -6.336,-0.789 -9.043,-1.589 -2.695,-0.797 -4.93,-1.989 -6.707,-3.583 -1.77,-1.601 -2.656,-3.722 -2.656,-6.382 0,-1.856 0.371,-3.407 1.121,-4.645 0.762,-1.246 1.758,-2.265 2.988,-3.066 1.242,-0.785 2.617,-1.352 4.133,-1.653 1.492,-0.308 3.047,-0.464 4.656,-0.464 5.832,0 10.324,1.75 13.469,5.242 3.152,3.508 4.727,7.906 4.727,13.222 v 3.325 z m 3.067,10.757 c 0,4.692 -1.426,8.172 -4.258,10.43 -2.825,2.262 -6.602,3.383 -11.289,3.383 -3.536,0 -6.887,-0.68 -10.032,-2.055 -3.152,-1.367 -5.781,-3.125 -7.918,-5.25 l -6.632,7.981 c 3.086,2.918 6.875,5.218 11.347,6.91 4.485,1.672 9.278,2.512 14.426,2.512 4.52,0 8.438,-0.645 11.758,-1.918 3.32,-1.289 6.035,-3.028 8.172,-5.258 2.129,-2.203 3.711,-4.821 4.785,-7.828 1.066,-3.02 1.582,-6.25 1.582,-9.711 v -27.492 c 0,-2.133 0.078,-4.372 0.207,-6.704 0.144,-2.359 0.379,-4.281 0.723,-5.785 H 349.02 c -0.715,3.008 -1.055,6.024 -1.055,9.035 h -0.41 c -2.297,-3.371 -5.188,-5.972 -8.703,-7.836 -3.497,-1.859 -7.625,-2.792 -12.411,-2.792 -2.48,0 -5.078,0.332 -7.785,1 -2.703,0.66 -5.156,1.742 -7.371,3.253 -2.207,1.504 -4.043,3.493 -5.508,5.981 -1.457,2.473 -2.187,5.531 -2.187,9.168 0,4.777 1.277,8.558 3.848,11.351 2.578,2.797 5.937,4.914 10.097,6.379 4.16,1.461 8.856,2.41 14.082,2.856 5.223,0.441 10.508,0.664 15.821,0.664 v 1.726"
         style="fill:#fffff8;fill-opacity:1;fill-rule:nonzero;stroke:none"
         id="path126" /><path
         d="M 392.328,211.656 H 379.84 v 94.164 h 12.488 v -94.164"
         style="fill:#fffff8;fill-opacity:1;fill-rule:nonzero;stroke:none"
         id="path128" /><path
         d="m 425.953,211.656 h -12.492 v 94.164 h 12.492 v -94.164"
         style="fill:#fffff8;fill-opacity:1;fill-rule:nonzero;stroke:none"
         id="path130" /><path
         d="m 141.949,149.719 14.219,-48.098 h 0.273 l 15.008,48.098 h 13.145 l 15.285,-48.098 h 0.262 l 14.218,48.098 h 13.157 l -20.86,-62.9885 h -13.027 l -15.547,47.3125 h -0.254 l -15.41,-47.3125 h -13.027 l -20.996,62.9885 h 13.554"
         style="fill:#fffff8;fill-opacity:1;fill-rule:nonzero;stroke:none"
         id="path132" /><path
         d="m 252.75,86.7305 h -12.48 v 62.9885 h 12.48 z m 1.992,85.7035 c 0,-2.305 -0.812,-4.204 -2.433,-5.723 -1.641,-1.508 -3.582,-2.258 -5.879,-2.258 -2.254,0 -4.207,0.781 -5.789,2.332 -1.582,1.543 -2.364,3.43 -2.364,5.649 0,2.293 0.782,4.226 2.364,5.769 1.582,1.563 3.535,2.324 5.789,2.324 2.297,0 4.238,-0.761 5.879,-2.324 1.621,-1.543 2.433,-3.476 2.433,-5.769"
         style="fill:#fffff8;fill-opacity:1;fill-rule:nonzero;stroke:none"
         id="path134" /><path
         d="m 306.156,139.48 h -16.738 v -32.722 c 0,-3.789 0.703,-6.504 2.129,-8.1369 1.406,-1.6406 3.672,-2.4609 6.758,-2.4609 1.164,0 2.414,0.1289 3.73,0.3632 1.34,0.2539 2.52,0.6172 3.594,1.1055 l 0.402,-10.2344 c -1.504,-0.5312 -3.176,-0.9414 -4.992,-1.25 -1.824,-0.3242 -3.699,-0.4687 -5.644,-0.4687 -5.926,0 -10.457,1.6367 -13.614,4.9101 -3.144,3.2696 -4.726,8.1914 -4.726,14.7461 v 34.148 h -12.09 v 10.239 h 12.09 v 18.062 h 12.363 v -18.062 h 16.738 V 139.48"
         style="fill:#fffff8;fill-opacity:1;fill-rule:nonzero;stroke:none"
         id="path136" /><path
         d="m 332.191,140.145 c 1.524,3.097 4.082,5.753 7.715,7.968 3.625,2.219 7.707,3.325 12.227,3.325 4.074,0 7.57,-0.684 10.488,-2.063 2.922,-1.367 5.363,-3.203 7.305,-5.508 1.953,-2.304 3.39,-5.012 4.328,-8.113 0.918,-3.098 1.387,-6.418 1.387,-9.953 V 86.7305 h -12.493 v 34.9025 c 0,2.566 -0.203,5.008 -0.593,7.32 -0.391,2.309 -1.125,4.348 -2.188,6.113 -1.066,1.789 -2.5,3.215 -4.316,4.282 -1.828,1.05 -4.199,1.597 -7.121,1.597 -4.95,0 -9.024,-1.89 -12.215,-5.672 -3.195,-3.769 -4.777,-8.796 -4.777,-15.109 V 86.7305 h -12.5 v 94.1755 h 12.5 v -40.761 h 0.253"
         style="fill:#fffff8;fill-opacity:1;fill-rule:nonzero;stroke:none"
         id="path138" /></g></g></svg>
