<svg height="40" viewBox="0 0 156 40" width="156" xmlns="http://www.w3.org/2000/svg"><g transform="matrix(.0999999975 0 0 -.0999999975 0 39.99999933333)"><path d="m1507 0h-1453.9805c-29.25 0-53.0195 23.8164-53.0195 53.0742v293.8478c0 29.269 23.7695 53.078 53.0195 53.078h1453.9805c29.23 0 53-23.809 53-53.078v-293.8478c0-29.2578-23.77-53.0742-53-53.0742" fill="#6d6d6c"/><path d="m53.0469 390.879c-24.2969 0-44.06252-19.762-44.06252-44.059v-293.6442c0-24.2969 19.76562-44.05471 44.06252-44.05471h1454.9231c24.29 0 44.04 19.75781 44.04 44.05471v293.6442c0 24.297-19.75 44.059-44.04 44.059z" fill="#09060b"/><g fill="#fffff8"><path d="m1190.93 168.984c-4.75 0-7.51 2.825-9.93 5.723-5.97 7.207-3.24 20.969.9 29.832 4.04 8.574 11.43 17.734 20.05 17.734 4.97 0 10.27-6.066 12.61-9.652 3.99-6.078 4.77-14.691 2.07-23.598-2.57-8.386-7.92-14.597-14.3-17.043-5.12-1.941-8.45-2.996-11.4-2.996zm1.2 95.278c-8.96 0-27.86-9.504-33.71-16.953-7.69-9.774-14.15-34.168-14.4-54.606-.19-16.453.52-18.941 8.39-30.418 11.09-16.191 29.45-30.547 41.79-32.683 12.27-2.129 33.26 3.503 40.15 9.976l2.08 1.867c4.31 3.789 12.33 10.84 16.71 20.196 0 0 6.2 12.312 6.39 24.558.2 12.856-2.94 21.867-2.94 21.867-4.14 29.7-7.14 33.133-23.96 41.055-27.95 13.176-37.38 15.141-40.5 15.141zm87.54-79.235c-2.31-2.168-4.04-7.351-3.96-16.836.05-7.058 1.59-14.929 2.94-17.253 5.2-9.036 16.53-21.258 21.52-24.141 10.44-6.074 21.76-1.035 43.35 17.539 6.95 5.977 8.17 8.672 9.32 20.559.92 9.253.1 18.257-2.3 25.757l-7.25 17.664 19.05 2.004c2.56.207 4.7.321 6.58.321 4.18 0 8.86-.461 11.9-3.856 3.77-4.219 3.33-10.906 2.16-22.144-2.15-19.375.98-30.586 11.56-41.496 5.68-5.872 8.17-7.665 10.62-7.665 1.64 0 3.85.711 7.65 2.442 8.72 3.973 11.77 10.828 8.12 43.023-1.57 14.598-3.2 30.852-3.2 34.25 0 6.989 6.85 10.231 30.38 17.739 16.14 5.148 31.53 11.714 35.78 14.617 6.91 4.734 7.3 5.949 6.82 12.25-.4 5.492-2.9 10.047-8.09 14.793-5.56 5.086-6.88 6.289-16.66 6.289-3.38 0-7.62-.153-13.12-.375-5.51-.473-9.95-.977-13.39-1.367-3.89-.446-6.59-.735-8.41-.735-5.93 0-7.02.367-7.06 3.543-.01.899-.11 4.489-.01 6.133.1 1.547.32 4.77.05 5.68l-.26.996c-.37.691-4.2 5.762-10.92 12.207-8.52 8.203-13.48 9.922-16.14 9.922-6.05 0-10.23-10.817-12.07-31.282 0 0 0-20.699-2.11-22.984s-25.27-9.215-25.27-9.215c-16.98-3.789-17.6-.988-20.18-6.558-2.58-5.575-2.31-8.395-2.08-11.821.23-3.422.28-4.222.28-4.222s-8.4 4.039-11.54 6.113l-1.04.687c-6.11 3.993-14.47 14.219-13.58 22.262.4 3.625 2.58 6.356 6.14 7.688 1.71 1.25 7.86 2.019 15.22 1.215 2.82-.301 9.02-3.59 10.46.64.34 2.344 3.8 8.891.01 13.078-5.33 5.879-18.31 11.496-22.23 12.692-3.92 1.199-12.92 1.851-15.16 1.851-3.49 0-7.54-1.777-16.65-6.136-18.02-8.606-22.42-14.926-22.42-32.207 0-10.536 0-10.946 21.09-31.758 26.52-26.192 35.38-43.551 27.84-52.7-4.53-5.48-9.15-6.625-12.23-6.625-7 0-9.84 12.2-14.09 15.5-4.25 3.418-7.19 1.922-7.42 1.922zm-255.87 73.661c-15.86 0-15.86 0-16.79-60.668-.11-6.473-.74-21.75-4.3-24.934-2.749-2.441-8.815-5.527-13.647-6.824-7.579-2.032-13.301-5-14.239-6.028-1.172-1.406-1.554-4.394-1.023-7.812.945-6.043 4.285-11.973 8.133-14.414l.918-.281c14.121-5.559 17.003-9.075 27.558-34.243 2.79-5.2535 12.84-12.4606 17.29-15.4098 9.12-6.1328 15.9-7.1367 20.58-2.4687 3.16 3.1562-1.03 13.3984-5.11 35.3715-2.15 11.777 1.64 13.32 13.97 16.425 6.84 1.731 16.73 8.907 20.17 8.907 5.68 0 12.19-4.7 17.88-12.879 3.79-5.469 11.15-12.453 16.82-17.207 4.2-3.559 11.87-5.676 14.25-5.676 2.35.305 4.19 1.863 5.48 4.316 2.02 3.86 2.16 8.7.35 12.332-8.25 16.719-15.64 70.34-11.65 83.817 14.1 47.332 3.56 58.601-5.59 62.965-4.98 2.375-9.31 3.582-12.88 3.582-8.13 0-19.08-5.836-20.12-56.297-.69-34.563-1.44-41.157-21.21-41.25 0 0 0 0-.01 0-3.92 0-9.22.496-12.42 4.843-3.4 4.813-3.38 12.512.09 24.875 3.99 14.407 1.88 29.418-5.54 39.176-3.39 4.461-9.43 9.782-18.96 9.782"/><path d="m917.246 189.629c-3.328 0-6.453 1.726-9.285 5.144-5.566 6.704-3.84 19.524 5.602 41.575 4.074 9.519 7.523 15.965 16.679 14.629 6.914-.997 10.227-4.762 11.789-7.747 3.809-7.273 2.063-18.32-5.183-32.816-7.297-14.57-13.157-20.785-19.602-20.785zm11.563 110.137c-6.973 0-14.09-2.563-21.746-7.828-6.25-4.301-10.344-8.77-10.911-9.825-.714-2.086-2.785-6.922-7.519-13.136-9.27-12.168-18.035-49.079-16.465-69.289 1.973-25.567 10.09-37.442 34.727-50.793 2.57-1.383 8.535-2.286 15.195-2.286 10.398 0 12.285.239 17.922 2.981 5.633 2.746 18.836 14.172 23.191 21.582.977 1.699 1.942 3.301 2.871 4.844 5.645 9.343 9.375 15.523 9.114 35.371-.864 63.851-9.25 69.535-27.622 81.988-6.328 4.301-12.461 6.391-18.757 6.391zm-168.766-25.149c-2.168-.023-6.984-1.898-10.195-4.363-4.399-3.383-4.758-3.66-3.149-13.481 5.621-33.964 3.965-74.363-4.429-108.05-3.305-13.125-1.434-16.899 11.777-23.782 5.469-2.824 9.336-4.211 11.828-4.211 4.223 0 6.16 5.122 11.066 20.918l1.082 3.481c5.965 19.273 7.45 22.184 11.329 22.184 2.445 0 4-1.676 9.757-7.918 2.922-3.157 6.457-6.985 10.071-10.403 14.258-13.472 29.383-27.652 35.91-25.183 6.668 2.531 7.105 8.703 5.867 82.523-.234 13.106.059 37.328.664 53.988.527 15.407-.066 26.481-.762 29.375.606 1.653-6.613 11.274-7.363 12.434-3.254 5.047-7.578 9.512-11.562 9.531-3.985.02-4.239-1.644-6.719-6.406-5.059-9.672-5.027-16.754-5.672-53.02-.766-44.226-3.383-45.453-5.48-46.437l-2.2-.488c-4.722 0-7.73 4.027-21.289 34.199-8.164 17.742-25.261 35.109-30.531 35.109zm-128.395-8.531c-.89-1.422-2.324-4.543-3.425-8.922-4.184-16.598-4.45-82.508-.395-97.953 3.641-13.957 20.574-34.902 32.36-40.039 10.609-4.602 16.867-4.524 26.765.484 16.231 8.235 21.57 16.106 27.207 40.129 14.371 61.391 13.86 93.18-1.719 106.278-5.238 4.406-7.894 5.066-9.007 5.066-1.215 0-5.211-1.711-5.692-23.707-.144-8.109-1.765-24.578-5.625-36.66-3.875-12.11-6.019-22.649-6.039-24.278-.062-3.796-2.937-9.55-4.961-12.453-3.769-5.152-9.824-6.187-15.914-2.761-6.394 3.679-7.043 9.824-7.535 39.543-.359 21.882-2.254 35.261-3.414 37.414-2.785 5.136-17.344 16.035-22.606 17.859zm-124.894 44.144c-2.684 0-5.383-.875-8.02-2.601-4.218-2.766-5.218-3.418-5.218-15.996 0-7.84 2.504-26.113 5.464-39.914 1.79-8.364 3.309-16.028 4.313-21.078.613-3.118 1.023-5.196 1.164-5.746 1.773-4.282 5.988-8.29 12.965-14.922l3.531-3.371 17.199-14.274-.797-32.504c-.679-27.644.012-30.742 5.774-42.273l.656-1.321c3.324-6.652 10.235-20.4995 14.363-23.2222 8.727-5.789 10.723-5.0586 12.696-2.9101 1.972 2.1484 6.09 73.7503 7.48 98.6253.285 5.09 6.531 12.777 12.207 17.757 5.43 4.77 13.125 14.086 16.805 20.34 5.965 10.172 5.894 11.309 3.484 18.578-2.011 6.118-5.871 10.207-14.226 15.098-2.918 2.125-6.477 6.152-9.66 5.145-3.184-1.012-23.844-32.539-31.036-34.821-1.472-1.019-3.457-1.675-5.378-1.675-8.278 0-10.817 10.179-13.387 33.007-1.844 16.403-3.488 23.098-10.184 33.039-6.613 9.844-13.594 15.039-20.195 15.039"/><path d="m106.367 215.32h-12.6522v88.551h12.6522z"/><path d="m139 275.969c.164-1.528.297-3.258.387-5.176.082-1.93.129-3.52.129-4.797h.386c.762 1.625 1.801 3.129 3.141 4.531 1.309 1.422 2.832 2.657 4.539 3.715 1.703 1.074 3.574 1.903 5.625 2.496 2.043.602 4.176.895 6.387.895 3.929 0 7.301-.66 10.129-1.981 2.812-1.332 5.156-3.086 7.035-5.308 1.875-2.223 3.246-4.817 4.14-7.809.895-2.972 1.352-6.18 1.352-9.597v-37.618h-12.035v33.657c0 2.468-.192 4.812-.559 7.039-.394 2.211-1.097 4.179-2.121 5.886-1.015 1.696-2.43 3.071-4.222 4.094-1.79 1.016-4.083 1.531-6.899 1.531-4.793 0-8.687-1.804-11.719-5.422-3.035-3.644-4.539-8.488-4.539-14.542v-32.243h-12.031v47.602c0 1.613-.039 3.715-.121 6.273-.082 2.559-.215 4.813-.399 6.774z"/><path d="m235.863 260.613c-1.371 2.223-3.281 4.039-5.758 5.442-2.476 1.418-5.25 2.113-8.32 2.113-1.363 0-2.726-.148-4.097-.441-1.356-.301-2.583-.774-3.641-1.414-1.063-.629-1.918-1.446-2.567-2.422-.628-.993-.953-2.211-.953-3.661 0-2.55 1.137-4.449 3.461-5.691 2.297-1.226 5.758-2.359 10.36-3.391 2.902-.679 5.586-1.492 8.062-2.425 2.469-.934 4.621-2.121 6.469-3.524 1.82-1.41 3.238-3.094 4.285-5.047 1.016-1.968 1.531-4.273 1.531-6.914 0-3.586-.675-6.613-2.058-9.09-1.364-2.468-3.168-4.492-5.434-6.074-2.258-1.574-4.844-2.707-7.738-3.383-2.902-.687-5.879-1.035-8.969-1.035-4.598 0-9.094.895-13.492 2.692-4.387 1.789-8.035 4.519-10.93 8.187l8.567 7.289c1.621-2.375 3.867-4.386 6.726-6.008 2.848-1.628 5.992-2.437 9.395-2.437 1.535 0 3.008.152 4.41.453 1.41.305 2.687.793 3.855 1.465 1.137.687 2.051 1.582 2.746 2.699.688 1.106 1.016 2.516 1.016 4.215 0 2.812-1.344 4.914-4.023 6.273-2.703 1.364-6.641 2.645-11.84 3.84-2.043.52-4.121 1.129-6.207 1.852-2.082.73-3.989 1.73-5.696 3.012-1.707 1.269-3.097 2.875-4.156 4.785-1.062 1.937-1.605 4.289-1.605 7.097 0 3.258.664 6.051 1.984 8.403 1.328 2.332 3.055 4.261 5.192 5.746 2.136 1.5 4.558 2.605 7.289 3.328 2.738.734 5.546 1.086 8.445 1.086 4.348 0 8.558-.852 12.594-2.559 4.062-1.707 7.187-4.176 9.414-7.414z"/><path d="m293.445 266.117h-16.117v-31.508c0-3.656.68-6.269 2.043-7.839 1.359-1.575 3.535-2.368 6.52-2.368 1.117 0 2.312.125 3.582.356 1.285.242 2.429.59 3.449 1.058l.394-9.855c-1.457-.508-3.058-.902-4.804-1.203-1.75-.309-3.567-.449-5.438-.449-5.703 0-10.082 1.566-13.109 4.73-3.031 3.149-4.555 7.891-4.555 14.199v32.879h-11.633v9.852h11.633v17.414h11.918v-17.414h16.117z"/><path d="m343.086 244.242c-2.973 0-6.078-.121-9.27-.387-3.203-.261-6.101-.757-8.703-1.531-2.597-.769-4.754-1.918-6.461-3.453-1.703-1.543-2.558-3.582-2.558-6.152 0-1.785.355-3.27 1.078-4.465.734-1.203 1.695-2.184 2.883-2.957 1.191-.762 2.519-1.305 3.972-1.586 1.442-.305 2.938-.453 4.489-.453 5.617 0 9.941 1.683 12.968 5.055 3.036 3.371 4.555 7.605 4.555 12.734v3.195zm2.953 10.363c0 4.516-1.375 7.875-4.101 10.047-2.719 2.168-6.356 3.254-10.875 3.254-3.403 0-6.629-.648-9.657-1.976-3.039-1.317-5.566-3.008-7.629-5.063l-6.382 7.688c2.972 2.812 6.621 5.031 10.925 6.66 4.317 1.605 8.938 2.418 13.891 2.418 4.355 0 8.125-.621 11.324-1.848 3.199-1.238 5.817-2.914 7.871-5.066 2.051-2.114 3.574-4.641 4.61-7.535 1.027-2.907 1.523-6.02 1.523-9.356v-26.48c0-2.051.078-4.203.199-6.45.145-2.277.367-4.128.696-5.578h-10.871c-.688 2.899-1.016 5.801-1.016 8.707h-.395c-2.211-3.25-4.996-5.75-8.382-7.547-3.368-1.789-7.344-2.691-11.954-2.691-2.386 0-4.886.316-7.496.969-2.601.629-4.965 1.672-7.097 3.133-2.125 1.445-3.899 3.355-5.309 5.754-1.402 2.378-2.105 5.335-2.105 8.832 0 4.597 1.23 8.238 3.707 10.925 2.48 2.703 5.714 4.743 9.726 6.153 4.004 1.402 8.528 2.316 13.559 2.746 5.035.426 10.121.637 15.238.637z"/><path d="m389.785 215.32h-12.027v88.645h12.027z"/><path d="m423.191 215.32h-12.031v88.645h12.031z"/><path d="m146.086 155.664 13.687-46.309h.266l14.457 46.309h12.66l14.719-46.309h.254l13.695 46.309h12.668l-20.09-60.664h-12.547l-14.972 45.574h-.242l-14.844-45.574h-12.543l-20.227 60.664z"/><path d="m253.305 95h-12.016v60.664h12.016zm1.922 82.539c0-2.219-.786-4.043-2.34-5.508-1.582-1.457-3.453-2.168-5.664-2.168-2.172 0-4.055.75-5.578 2.239-1.524 1.492-2.274 3.308-2.274 5.437 0 2.219.75 4.082 2.274 5.566 1.523 1.504 3.406 2.247 5.578 2.247 2.211 0 4.082-.743 5.664-2.247 1.554-1.484 2.34-3.347 2.34-5.566"/><path d="m305.258 145.813h-16.121v-31.516c0-3.645.676-6.262 2.051-7.844 1.351-1.582 3.535-2.371 6.507-2.371 1.118 0 2.325.137 3.594.359 1.289.247 2.426.586 3.461 1.055l.387-9.8515c-1.449-.5078-3.059-.9101-4.809-1.2109-1.758-.3008-3.566-.4492-5.433-.4492-5.711 0-10.075 1.582-13.114 4.7383-3.027 3.1403-4.551 7.8863-4.551 14.2073v32.883h-11.644v9.851h11.644v17.402h11.907v-17.402h16.121z"/><path d="m330.844 146.445c1.465 2.989 3.929 5.547 7.426 7.676 3.492 2.149 7.421 3.203 11.781 3.203 3.918 0 7.289-.664 10.101-1.98 2.813-1.321 5.161-3.086 7.036-5.305 1.878-2.219 3.261-4.836 4.164-7.82.882-2.981 1.336-6.172 1.336-9.582v-37.637h-12.028v33.613c0 2.481-.199 4.832-.578 7.051-.375 2.227-1.078 4.199-2.102 5.891-1.027 1.734-2.41 3.101-4.164 4.121-1.753 1.012-4.043 1.543-6.851 1.543-4.77 0-8.695-1.828-11.766-5.449-3.074-3.633-4.597-8.489-4.597-14.563v-32.207h-12.043v88.75h12.043v-37.305z"/></g></g></svg>