<?xml version="1.0" encoding="UTF-8" standalone="no"?>
<svg
   xmlns:dc="http://purl.org/dc/elements/1.1/"
   xmlns:cc="http://creativecommons.org/ns#"
   xmlns:rdf="http://www.w3.org/1999/02/22-rdf-syntax-ns#"
   xmlns:svg="http://www.w3.org/2000/svg"
   xmlns="http://www.w3.org/2000/svg"
   xmlns:sodipodi="http://sodipodi.sourceforge.net/DTD/sodipodi-0.dtd"
   xmlns:inkscape="http://www.inkscape.org/namespaces/inkscape"
   version="1.1"
   id="svg70"
   xml:space="preserve"
   width="156"
   height="40"
   viewBox="0 0 156 40"
   sodipodi:docname="install-with-yunohost1.svg"
   inkscape:version="1.0.1 (c497b03c, 2020-09-10)"><metadata
     id="metadata76"><rdf:RDF><cc:Work
         rdf:about=""><dc:format>image/svg+xml</dc:format><dc:type
           rdf:resource="http://purl.org/dc/dcmitype/StillImage" /><dc:title></dc:title></cc:Work></rdf:RDF></metadata><defs
     id="defs74" /><sodipodi:namedview
     pagecolor="#ffffff"
     bordercolor="#666666"
     borderopacity="1"
     objecttolerance="10"
     gridtolerance="10"
     guidetolerance="10"
     inkscape:pageopacity="0"
     inkscape:pageshadow="2"
     inkscape:window-width="1588"
     inkscape:window-height="838"
     id="namedview72"
     showgrid="false"
     inkscape:zoom="6.1153846"
     inkscape:cx="104"
     inkscape:cy="26.666664"
     inkscape:window-x="151"
     inkscape:window-y="159"
     inkscape:window-maximized="0"
     inkscape:current-layer="g78" /><g
     id="g78"
     inkscape:groupmode="layer"
     inkscape:label="ink_ext_XXXXXX"
     transform="matrix(1.3333333,0,0,-1.3333333,0,53.333331)"><g
       id="g80"
       transform="matrix(0.075,0,0,0.075,0,9.9999992)"
       inkscape:export-xdpi="96"
       inkscape:export-ydpi="96"><path
         d="M 1507,0 H 53.0195 C 23.7695,0 0,23.8164 0,53.0742 V 346.922 C 0,376.191 23.7695,400 53.0195,400 H 1507 c 29.23,0 53,-23.809 53,-53.078 V 53.0742 C 1560,23.8164 1536.23,0 1507,0"
         style="fill:#6d6d6c;fill-opacity:1;fill-rule:nonzero;stroke:none"
         id="path82" /><path
         d="M 53.0469,390.879 C 28.75,390.879 8.98438,371.117 8.98438,346.82 V 53.1758 C 8.98438,28.8789 28.75,9.12109 53.0469,9.12109 H 1507.97 c 24.29,0 44.04,19.75781 44.04,44.05471 V 346.82 c 0,24.297 -19.75,44.059 -44.04,44.059 H 53.0469"
         style="fill:#09060b;fill-opacity:1;fill-rule:nonzero;stroke:none"
         id="path84" /><path
         d="m 1183.8,162.922 v 0 c -4.75,0 -7.51,2.82 -9.93,5.723 -5.97,7.207 -3.24,20.039 0.91,28.839 4.03,8.575 11.42,17.735 20.04,17.735 4.97,0 10.27,-6.071 12.61,-9.653 4,-6.078 4.77,-14.691 2.07,-23.027 -2.57,-7.969 -7.92,-14.18 -14.29,-16.621 -5.13,-1.941 -8.46,-2.996 -11.41,-2.996 z m 1.2,94.285 c -8.96,0 -27.86,-9.508 -33.71,-16.953 -7.69,-9.774 -14.15,-34.168 -14.4,-54.375 -0.19,-15.691 0.52,-18.184 8.39,-29.656 11.09,-16.196 29.45,-30.547 41.79,-32.688 12.28,-2.129 33.26,3.504 40.15,9.981 l 2.08,1.867 c 4.31,3.789 12.33,10.84 16.72,20.191 0,0 6.19,12.317 6.38,24.367 0.2,12.055 -2.94,21.071 -2.94,21.071 -4.14,29.695 -7.14,33.133 -23.96,41.054 -27.95,13.172 -37.37,15.141 -40.5,15.141 z m 87.54,-78.391 c -2.31,-2.058 -4.03,-7.207 -3.96,-16.687 0.05,-7.063 1.6,-14.934 2.94,-17.258 5.2,-9.031 16.53,-21.258 21.52,-24.141 10.44,-6.074 21.76,-1.035 43.35,17.54 6.95,5.976 8.17,8.671 9.32,20.558 0.92,9.258 0.1,18.203 -2.3,25.188 l -7.25,17.246 19.05,2.004 c 2.56,0.207 4.7,0.32 6.58,0.32 4.18,0 8.86,-0.461 11.9,-3.856 3.77,-4.218 3.33,-10.851 2.16,-21.285 -2.15,-19.246 0.99,-30.457 11.56,-41.367 5.69,-5.867 8.17,-7.664 10.62,-7.664 1.64,0 3.85,0.715 7.65,2.441 8.72,3.973 11.77,10.833 8.12,43.028 -1.57,13.672 -3.19,29.859 -3.19,33.258 0,6.988 6.84,10.226 30.37,17.738 16.14,5.144 31.53,11.715 35.78,14.613 6.91,4.738 7.3,5.953 6.82,12.25 -0.4,5.496 -2.9,10.051 -8.09,14.797 -5.56,5.082 -6.88,6.289 -16.66,6.289 -3.38,0 -7.62,-0.152 -13.12,-0.375 -5.5,-0.473 -9.95,-0.976 -13.39,-1.367 -3.89,-0.445 -6.59,-0.734 -8.4,-0.734 -5.94,0 -7.03,0.367 -7.06,3.543 -0.01,0.898 -0.12,4.484 -0.01,6.128 0.09,1.551 0.31,4.774 0.04,5.68 l -0.26,0.996 c -0.37,0.696 -4.2,5.762 -10.92,12.207 -8.52,8.203 -13.48,9.922 -16.14,9.922 -6.04,0 -10.22,-10.812 -12.07,-31.277 0,0 0,-20.699 -2.11,-22.985 -2.11,-2.285 -25.27,-9.214 -25.27,-9.214 -16.98,-3.789 -17.6,-0.993 -20.18,-6.563 -2.58,-5.57 -2.31,-8.394 -2.08,-11.816 0.24,-3.422 0.28,-4.223 0.28,-4.223 0,0 -8.4,4.039 -11.54,6.113 l -1.04,0.688 c -6.11,3.988 -14.47,14.219 -13.58,22.262 0.4,3.625 2.58,6.351 6.15,7.683 1.7,1.25 7.85,2.024 15.21,1.219 2.82,-0.305 9.02,-3.59 10.46,0.64 0.34,2.34 3.8,8.891 0.01,13.079 -5.33,5.879 -18.31,11.496 -22.23,12.691 -3.91,1.195 -12.92,1.852 -15.15,1.852 -3.5,0 -7.55,-1.778 -16.65,-6.137 -18.03,-8.606 -22.43,-14.93 -22.43,-32.207 0,-10.535 0,-10.945 21.09,-31.762 26.52,-26.187 35.38,-42.625 27.84,-51.707 -4.53,-5.476 -9.15,-6.621 -12.23,-6.621 -7,0 -9.84,12.195 -14.09,15.449 -4.25,3.25 -7.19,1.824 -7.42,1.824 z m -255.87,72.817 c -15.86,0 -15.86,0 -16.787,-60.672 -0.11,-6.137 -0.742,-20.758 -4.309,-23.941 -2.742,-2.442 -8.804,-5.528 -13.64,-6.825 -7.579,-2.031 -13.301,-5 -14.239,-6.023 -1.172,-1.406 -1.55,-4.399 -1.023,-7.817 0.945,-6.042 4.285,-11.968 8.133,-14.414 l 0.918,-0.281 c 14.121,-5.555 17.004,-9.07 27.557,-34.2381 2.79,-5.2539 12.84,-12.461 17.29,-15.4102 9.12,-6.1328 15.9,-7.1406 20.58,-2.4687 3.16,3.1523 -1.03,13.3945 -5.11,35.367 -2.15,11.778 1.65,13.32 13.97,16.43 6.85,1.726 16.73,8.902 20.18,8.902 5.67,0 12.18,-4.695 17.87,-12.879 3.8,-5.468 11.15,-12.453 16.82,-17.207 4.2,-3.554 11.87,-5.676 14.25,-5.676 2.35,0.305 4.19,1.868 5.48,4.321 2.02,3.855 2.16,8.699 0.35,12.332 -8.25,16.719 -15.64,69.347 -11.65,82.82 14.1,47.336 3.57,58.606 -5.59,62.965 -4.98,2.379 -9.31,3.586 -12.88,3.586 -8.13,0 -19.08,-5.836 -20.12,-56.301 -0.69,-33.793 -1.44,-40.16 -21.2,-40.258 0,0 0,0 -0.01,0 -3.93,0 -9.23,0.496 -12.43,4.707 -3.39,4.473 -3.37,11.661 0.09,24.024 4,14.402 1.88,29.418 -5.54,39.176 -3.39,4.461 -9.43,9.781 -18.96,9.781"
         style="fill:#fffff8;fill-opacity:1;fill-rule:nonzero;stroke:none"
         id="path86" /><path
         d="m 917.246,203.594 v 0 c -3.328,0 -6.453,1.726 -9.285,5.144 -5.566,6.7 -3.84,19.524 5.602,41.575 4.074,9.523 7.523,15.964 16.679,14.628 6.914,-0.996 10.227,-4.761 11.789,-7.746 3.809,-7.273 2.063,-18.316 -5.183,-32.816 -7.297,-14.57 -13.157,-20.785 -19.602,-20.785 z m 11.563,110.136 c -6.973,0 -14.09,-2.562 -21.746,-7.828 -6.25,-4.3 -10.344,-8.769 -10.911,-9.824 -0.714,-2.086 -2.785,-6.922 -7.519,-13.14 -9.27,-12.168 -18.035,-49.075 -16.465,-69.286 1.973,-25.578 10.09,-37.453 34.727,-50.8 2.57,-1.387 8.535,-2.286 15.195,-2.286 10.398,0 12.285,0.235 17.922,2.981 5.633,2.742 18.836,14.168 23.191,21.582 0.977,1.695 1.942,3.301 2.871,4.844 5.645,9.347 9.375,15.531 9.114,35.379 -0.864,63.851 -9.25,69.535 -27.622,81.988 -6.328,4.301 -12.461,6.39 -18.757,6.39 z M 760.043,288.586 c -2.168,-0.027 -6.984,-1.902 -10.195,-4.367 -4.399,-3.383 -4.758,-3.66 -3.149,-13.481 5.621,-33.965 3.965,-74.359 -4.429,-108.062 -3.305,-13.125 -1.434,-16.895 11.777,-23.781 5.469,-2.821 9.336,-4.207 11.828,-4.207 4.223,0 6.16,5.117 11.066,20.917 l 1.082,3.477 c 5.965,19.277 7.45,22.188 11.329,22.188 2.445,0 4,-1.68 9.757,-7.918 2.922,-3.157 6.457,-6.985 10.071,-10.403 14.258,-13.476 29.383,-27.656 35.91,-25.183 6.668,2.527 7.105,8.699 5.867,82.531 -0.234,13.105 0.059,37.332 0.664,53.988 0.527,15.406 -0.066,26.481 -0.762,29.379 0.606,1.649 -6.613,11.266 -7.363,12.43 -3.254,5.051 -7.578,9.511 -11.562,9.531 -3.985,0.02 -4.239,-1.645 -6.719,-6.406 -5.059,-9.672 -5.027,-16.754 -5.672,-53.02 -0.766,-44.226 -3.383,-45.453 -5.48,-46.437 l -2.2,-0.489 c -4.722,0 -7.73,4.028 -21.289,34.2 -8.164,17.742 -25.261,35.113 -30.531,35.113 z m -128.395,-8.535 c -0.89,-1.422 -2.324,-4.543 -3.425,-8.922 -4.184,-16.598 -4.45,-82.516 -0.395,-97.965 3.641,-13.953 20.574,-34.902 32.36,-40.039 10.609,-4.602 16.867,-4.52 26.765,0.488 16.231,8.235 21.57,16.106 27.207,40.125 14.371,61.403 13.86,93.192 -1.719,106.289 -5.238,4.407 -7.894,5.067 -9.007,5.067 -1.215,0 -5.211,-1.711 -5.692,-23.707 -0.144,-8.11 -1.765,-24.578 -5.625,-36.66 -3.875,-12.11 -6.019,-22.649 -6.039,-24.282 -0.062,-3.797 -2.937,-9.554 -4.961,-12.457 -3.769,-5.156 -9.824,-6.191 -15.914,-2.761 -6.394,3.679 -7.043,9.828 -7.535,39.546 -0.359,21.887 -2.254,35.266 -3.414,37.418 -2.785,5.137 -17.344,16.036 -22.606,17.86 z m -124.894,44.144 c -2.684,0 -5.383,-0.875 -8.02,-2.601 -4.218,-2.766 -5.218,-3.422 -5.218,-15.996 0,-7.84 2.504,-26.118 5.464,-39.914 1.79,-8.364 3.309,-16.028 4.313,-21.079 0.613,-3.117 1.023,-5.195 1.164,-5.75 1.773,-4.277 5.988,-8.285 12.965,-14.917 l 3.531,-3.372 17.199,-14.273 -0.797,-32.516 c -0.679,-27.644 0.012,-30.742 5.774,-42.273 l 0.656,-1.316 c 3.324,-6.653 10.235,-20.5 14.363,-23.223 8.727,-5.793 10.723,-5.063 12.696,-2.91 1.972,2.144 6.09,73.75 7.48,98.633 0.285,5.089 6.531,12.777 12.207,17.757 5.43,4.77 13.125,14.086 16.805,20.34 5.965,10.172 5.894,11.309 3.484,18.578 -2.011,6.117 -5.871,10.207 -14.226,15.102 -2.918,2.121 -6.477,6.148 -9.66,5.14 -3.184,-1.011 -23.844,-32.539 -31.036,-34.82 -1.472,-1.019 -3.457,-1.676 -5.378,-1.676 -8.278,0 -10.817,10.18 -13.387,33.008 -1.844,16.403 -3.488,23.098 -10.184,33.039 -6.613,9.844 -13.594,15.039 -20.195,15.039"
         style="fill:#fffff8;fill-opacity:1;fill-rule:nonzero;stroke:none"
         id="path88" /><path
         d="M 106.367,215.32 H 93.7148 v 90.602 H 106.367 V 215.32"
         style="fill:#fffff8;fill-opacity:1;fill-rule:nonzero;stroke:none"
         id="path90" /><path
         d="m 139,275.969 c 0.164,-1.528 0.297,-3.258 0.387,-5.176 0.082,-1.93 0.129,-3.52 0.129,-4.797 h 0.386 c 0.762,1.625 1.801,3.129 3.141,4.531 1.309,1.422 2.832,2.657 4.539,3.715 1.703,1.074 3.574,1.903 5.625,2.496 2.043,0.602 4.176,0.895 6.387,0.895 3.929,0 7.301,-0.66 10.129,-1.981 2.812,-1.332 5.156,-3.086 7.035,-5.308 1.875,-2.223 3.246,-4.817 4.14,-7.809 0.895,-2.972 1.352,-6.18 1.352,-9.597 V 215.32 h -12.035 v 33.657 c 0,2.468 -0.192,4.812 -0.559,7.039 -0.394,2.211 -1.097,4.179 -2.121,5.886 -1.015,1.696 -2.43,3.071 -4.222,4.094 -1.79,1.016 -4.083,1.531 -6.899,1.531 -4.793,0 -8.687,-1.804 -11.719,-5.422 -3.035,-3.644 -4.539,-8.488 -4.539,-14.542 V 215.32 h -12.031 v 47.602 c 0,1.613 -0.039,3.715 -0.121,6.273 -0.082,2.559 -0.215,4.813 -0.399,6.774 H 139"
         style="fill:#fffff8;fill-opacity:1;fill-rule:nonzero;stroke:none"
         id="path92" /><path
         d="m 235.863,260.613 c -1.371,2.223 -3.281,4.039 -5.758,5.442 -2.476,1.418 -5.25,2.113 -8.32,2.113 -1.363,0 -2.726,-0.148 -4.097,-0.441 -1.356,-0.301 -2.583,-0.774 -3.641,-1.414 -1.063,-0.629 -1.918,-1.446 -2.567,-2.422 -0.628,-0.993 -0.953,-2.211 -0.953,-3.661 0,-2.55 1.137,-4.449 3.461,-5.691 2.297,-1.226 5.758,-2.359 10.36,-3.391 2.902,-0.679 5.586,-1.492 8.062,-2.425 2.469,-0.934 4.621,-2.121 6.469,-3.524 1.82,-1.41 3.238,-3.094 4.285,-5.047 1.016,-1.968 1.531,-4.273 1.531,-6.914 0,-3.586 -0.675,-6.613 -2.058,-9.09 -1.364,-2.468 -3.168,-4.492 -5.434,-6.074 -2.258,-1.574 -4.844,-2.707 -7.738,-3.383 -2.902,-0.687 -5.879,-1.035 -8.969,-1.035 -4.598,0 -9.094,0.895 -13.492,2.692 -4.387,1.789 -8.035,4.519 -10.93,8.187 l 8.567,7.289 c 1.621,-2.375 3.867,-4.386 6.726,-6.008 2.848,-1.628 5.992,-2.437 9.395,-2.437 1.535,0 3.008,0.152 4.41,0.453 1.41,0.305 2.687,0.793 3.855,1.465 1.137,0.687 2.051,1.582 2.746,2.699 0.688,1.106 1.016,2.516 1.016,4.215 0,2.812 -1.344,4.914 -4.023,6.273 -2.703,1.364 -6.641,2.645 -11.84,3.84 -2.043,0.52 -4.121,1.129 -6.207,1.852 -2.082,0.73 -3.989,1.73 -5.696,3.012 -1.707,1.269 -3.097,2.875 -4.156,4.785 -1.062,1.937 -1.605,4.289 -1.605,7.097 0,3.258 0.664,6.051 1.984,8.403 1.328,2.332 3.055,4.261 5.192,5.746 2.136,1.5 4.558,2.605 7.289,3.328 2.738,0.734 5.546,1.086 8.445,1.086 4.348,0 8.558,-0.852 12.594,-2.559 4.062,-1.707 7.187,-4.176 9.414,-7.414 l -8.317,-7.047"
         style="fill:#fffff8;fill-opacity:1;fill-rule:nonzero;stroke:none"
         id="path94" /><path
         d="m 293.445,266.117 h -16.117 v -31.508 c 0,-3.656 0.68,-6.269 2.043,-7.839 1.359,-1.575 3.535,-2.368 6.52,-2.368 1.117,0 2.312,0.125 3.582,0.356 1.285,0.242 2.429,0.59 3.449,1.058 l 0.394,-9.855 c -1.457,-0.508 -3.058,-0.902 -4.804,-1.203 -1.75,-0.309 -3.567,-0.449 -5.438,-0.449 -5.703,0 -10.082,1.566 -13.109,4.73 -3.031,3.149 -4.555,7.891 -4.555,14.199 v 32.879 h -11.633 v 9.852 h 11.633 v 17.414 h 11.918 v -17.414 h 16.117 v -9.852"
         style="fill:#fffff8;fill-opacity:1;fill-rule:nonzero;stroke:none"
         id="path96" /><path
         d="m 343.086,244.242 c -2.973,0 -6.078,-0.121 -9.27,-0.387 -3.203,-0.261 -6.101,-0.757 -8.703,-1.531 -2.597,-0.769 -4.754,-1.918 -6.461,-3.453 -1.703,-1.543 -2.558,-3.582 -2.558,-6.152 0,-1.785 0.355,-3.27 1.078,-4.465 0.734,-1.203 1.695,-2.184 2.883,-2.957 1.191,-0.762 2.519,-1.305 3.972,-1.586 1.442,-0.305 2.938,-0.453 4.489,-0.453 5.617,0 9.941,1.683 12.968,5.055 3.036,3.371 4.555,7.605 4.555,12.734 v 3.195 z m 2.953,10.363 c 0,4.516 -1.375,7.875 -4.101,10.047 -2.719,2.168 -6.356,3.254 -10.875,3.254 -3.403,0 -6.629,-0.648 -9.657,-1.976 -3.039,-1.317 -5.566,-3.008 -7.629,-5.063 l -6.382,7.688 c 2.972,2.812 6.621,5.031 10.925,6.66 4.317,1.605 8.938,2.418 13.891,2.418 4.355,0 8.125,-0.621 11.324,-1.848 3.199,-1.238 5.817,-2.914 7.871,-5.066 2.051,-2.114 3.574,-4.641 4.61,-7.535 1.027,-2.907 1.523,-6.02 1.523,-9.356 v -26.48 c 0,-2.051 0.078,-4.203 0.199,-6.45 0.145,-2.277 0.367,-4.128 0.696,-5.578 h -10.871 c -0.688,2.899 -1.016,5.801 -1.016,8.707 h -0.395 c -2.211,-3.25 -4.996,-5.75 -8.382,-7.547 -3.368,-1.789 -7.344,-2.691 -11.954,-2.691 -2.386,0 -4.886,0.316 -7.496,0.969 -2.601,0.629 -4.965,1.672 -7.097,3.133 -2.125,1.445 -3.899,3.355 -5.309,5.754 -1.402,2.378 -2.105,5.335 -2.105,8.832 0,4.597 1.23,8.238 3.707,10.925 2.48,2.703 5.714,4.743 9.726,6.153 4.004,1.402 8.528,2.316 13.559,2.746 5.035,0.426 10.121,0.637 15.238,0.637 v 1.667"
         style="fill:#fffff8;fill-opacity:1;fill-rule:nonzero;stroke:none"
         id="path98" /><path
         d="m 389.785,215.32 h -12.027 v 90.696 h 12.027 V 215.32"
         style="fill:#fffff8;fill-opacity:1;fill-rule:nonzero;stroke:none"
         id="path100" /><path
         d="M 423.191,215.32 H 411.16 v 90.696 h 12.031 V 215.32"
         style="fill:#fffff8;fill-opacity:1;fill-rule:nonzero;stroke:none"
         id="path102" /><path
         d="m 146.086,155.664 13.687,-46.309 h 0.266 l 14.457,46.309 h 12.66 l 14.719,-46.309 h 0.254 l 13.695,46.309 h 12.668 L 208.402,95 h -12.547 l -14.972,45.574 h -0.242 L 165.797,95 h -12.543 l -20.227,60.664 h 13.059"
         style="fill:#fffff8;fill-opacity:1;fill-rule:nonzero;stroke:none"
         id="path104" /><path
         d="m 253.305,95 h -12.016 v 60.664 h 12.016 z m 1.922,82.539 c 0,-2.219 -0.786,-4.043 -2.34,-5.508 -1.582,-1.457 -3.453,-2.168 -5.664,-2.168 -2.172,0 -4.055,0.75 -5.578,2.239 -1.524,1.492 -2.274,3.308 -2.274,5.437 0,2.219 0.75,4.082 2.274,5.566 1.523,1.504 3.406,2.247 5.578,2.247 2.211,0 4.082,-0.743 5.664,-2.247 1.554,-1.484 2.34,-3.347 2.34,-5.566"
         style="fill:#fffff8;fill-opacity:1;fill-rule:nonzero;stroke:none"
         id="path106" /><path
         d="m 305.258,145.813 h -16.121 v -31.516 c 0,-3.645 0.676,-6.262 2.051,-7.844 1.351,-1.582 3.535,-2.371 6.507,-2.371 1.118,0 2.325,0.137 3.594,0.359 1.289,0.247 2.426,0.586 3.461,1.055 l 0.387,-9.8515 c -1.449,-0.5078 -3.059,-0.9101 -4.809,-1.2109 -1.758,-0.3008 -3.566,-0.4492 -5.433,-0.4492 -5.711,0 -10.075,1.582 -13.114,4.7383 -3.027,3.1403 -4.551,7.8863 -4.551,14.2073 v 32.883 h -11.644 v 9.851 h 11.644 v 17.402 h 11.907 v -17.402 h 16.121 v -9.851"
         style="fill:#fffff8;fill-opacity:1;fill-rule:nonzero;stroke:none"
         id="path108" /><path
         d="m 330.844,146.445 c 1.465,2.989 3.929,5.547 7.426,7.676 3.492,2.149 7.421,3.203 11.781,3.203 3.918,0 7.289,-0.664 10.101,-1.98 2.813,-1.321 5.161,-3.086 7.036,-5.305 1.878,-2.219 3.261,-4.836 4.164,-7.82 0.882,-2.981 1.336,-6.172 1.336,-9.582 V 95 H 360.66 v 33.613 c 0,2.481 -0.199,4.832 -0.578,7.051 -0.375,2.227 -1.078,4.199 -2.102,5.891 -1.027,1.734 -2.41,3.101 -4.164,4.121 -1.753,1.012 -4.043,1.543 -6.851,1.543 -4.77,0 -8.695,-1.828 -11.766,-5.449 -3.074,-3.633 -4.597,-8.489 -4.597,-14.563 V 95 h -12.043 v 90.703 h 12.043 v -39.258 h 0.242"
         style="fill:#fffff8;fill-opacity:1;fill-rule:nonzero;stroke:none"
         id="path110" /></g></g></svg>
